<?xml version="1.0" encoding="UTF-8"?>
<svg xmlns="http://www.w3.org/2000/svg" xmlns:xlink="http://www.w3.org/1999/xlink" width="600" height="450" viewBox="0 0 600 450">
<defs>
<g>
<g id="glyph-0-0-ae3de715">
<path d="M 1.484375 -4.96875 L 10.25 -4.96875 L 10.25 -3.8125 L 1.484375 -3.8125 Z M 1.484375 -4.96875 "/>
</g>
<g id="glyph-0-1-ae3de715">
<path d="M 5.6875 -5.5 C 6.34375 -5.363281 6.851562 -5.070312 7.21875 -4.625 C 7.59375 -4.175781 7.78125 -3.625 7.78125 -2.96875 C 7.78125 -1.957031 7.429688 -1.175781 6.734375 -0.625 C 6.046875 -0.0703125 5.066406 0.203125 3.796875 0.203125 C 3.367188 0.203125 2.925781 0.15625 2.46875 0.0625 C 2.019531 -0.0195312 1.550781 -0.144531 1.0625 -0.3125 L 1.0625 -1.640625 C 1.445312 -1.421875 1.867188 -1.253906 2.328125 -1.140625 C 2.785156 -1.023438 3.257812 -0.96875 3.75 -0.96875 C 4.613281 -0.96875 5.269531 -1.132812 5.71875 -1.46875 C 6.175781 -1.8125 6.40625 -2.3125 6.40625 -2.96875 C 6.40625 -3.570312 6.191406 -4.039062 5.765625 -4.375 C 5.347656 -4.71875 4.765625 -4.890625 4.015625 -4.890625 L 2.828125 -4.890625 L 2.828125 -6.015625 L 4.078125 -6.015625 C 4.753906 -6.015625 5.269531 -6.148438 5.625 -6.421875 C 5.988281 -6.703125 6.171875 -7.097656 6.171875 -7.609375 C 6.171875 -8.128906 5.984375 -8.53125 5.609375 -8.8125 C 5.242188 -9.09375 4.710938 -9.234375 4.015625 -9.234375 C 3.640625 -9.234375 3.234375 -9.191406 2.796875 -9.109375 C 2.367188 -9.023438 1.894531 -8.894531 1.375 -8.71875 L 1.375 -9.953125 C 1.894531 -10.097656 2.382812 -10.207031 2.84375 -10.28125 C 3.300781 -10.351562 3.734375 -10.390625 4.140625 -10.390625 C 5.191406 -10.390625 6.019531 -10.148438 6.625 -9.671875 C 7.238281 -9.203125 7.546875 -8.5625 7.546875 -7.75 C 7.546875 -7.175781 7.382812 -6.695312 7.0625 -6.3125 C 6.738281 -5.925781 6.28125 -5.65625 5.6875 -5.5 Z M 5.6875 -5.5 "/>
</g>
<g id="glyph-0-2-ae3de715">
<path d="M 2.6875 -1.15625 L 7.5 -1.15625 L 7.5 0 L 1.03125 0 L 1.03125 -1.15625 C 1.550781 -1.695312 2.265625 -2.425781 3.171875 -3.34375 C 4.078125 -4.257812 4.644531 -4.847656 4.875 -5.109375 C 5.3125 -5.609375 5.617188 -6.03125 5.796875 -6.375 C 5.972656 -6.71875 6.0625 -7.054688 6.0625 -7.390625 C 6.0625 -7.929688 5.867188 -8.375 5.484375 -8.71875 C 5.109375 -9.0625 4.613281 -9.234375 4 -9.234375 C 3.570312 -9.234375 3.117188 -9.15625 2.640625 -9 C 2.160156 -8.851562 1.644531 -8.625 1.09375 -8.3125 L 1.09375 -9.71875 C 1.644531 -9.9375 2.160156 -10.101562 2.640625 -10.21875 C 3.128906 -10.332031 3.578125 -10.390625 3.984375 -10.390625 C 5.035156 -10.390625 5.875 -10.125 6.5 -9.59375 C 7.132812 -9.070312 7.453125 -8.367188 7.453125 -7.484375 C 7.453125 -7.054688 7.375 -6.65625 7.21875 -6.28125 C 7.0625 -5.90625 6.773438 -5.460938 6.359375 -4.953125 C 6.242188 -4.828125 5.878906 -4.445312 5.265625 -3.8125 C 4.660156 -3.175781 3.800781 -2.289062 2.6875 -1.15625 Z M 2.6875 -1.15625 "/>
</g>
<g id="glyph-0-3-ae3de715">
<path d="M 1.734375 -1.15625 L 4 -1.15625 L 4 -8.953125 L 1.53125 -8.453125 L 1.53125 -9.71875 L 3.984375 -10.203125 L 5.359375 -10.203125 L 5.359375 -1.15625 L 7.609375 -1.15625 L 7.609375 0 L 1.734375 0 Z M 1.734375 -1.15625 "/>
</g>
<g id="glyph-0-4-ae3de715">
<path d="M 4.453125 -9.296875 C 3.742188 -9.296875 3.207031 -8.945312 2.84375 -8.25 C 2.488281 -7.550781 2.3125 -6.5 2.3125 -5.09375 C 2.3125 -3.695312 2.488281 -2.644531 2.84375 -1.9375 C 3.207031 -1.238281 3.742188 -0.890625 4.453125 -0.890625 C 5.171875 -0.890625 5.707031 -1.238281 6.0625 -1.9375 C 6.414062 -2.644531 6.59375 -3.695312 6.59375 -5.09375 C 6.59375 -6.5 6.414062 -7.550781 6.0625 -8.25 C 5.707031 -8.945312 5.171875 -9.296875 4.453125 -9.296875 Z M 4.453125 -10.390625 C 5.597656 -10.390625 6.472656 -9.9375 7.078125 -9.03125 C 7.679688 -8.125 7.984375 -6.8125 7.984375 -5.09375 C 7.984375 -3.375 7.679688 -2.0625 7.078125 -1.15625 C 6.472656 -0.25 5.597656 0.203125 4.453125 0.203125 C 3.304688 0.203125 2.429688 -0.25 1.828125 -1.15625 C 1.222656 -2.0625 0.921875 -3.375 0.921875 -5.09375 C 0.921875 -6.8125 1.222656 -8.125 1.828125 -9.03125 C 2.429688 -9.9375 3.304688 -10.390625 4.453125 -10.390625 Z M 4.453125 -10.390625 "/>
</g>
<g id="glyph-0-5-ae3de715">
<path d="M 1.5 -1.734375 L 2.9375 -1.734375 L 2.9375 0 L 1.5 0 Z M 1.5 -1.734375 "/>
</g>
<g id="glyph-0-6-ae3de715">
<path d="M 1.515625 -10.203125 L 6.9375 -10.203125 L 6.9375 -9.046875 L 2.78125 -9.046875 L 2.78125 -6.546875 C 2.976562 -6.609375 3.175781 -6.65625 3.375 -6.6875 C 3.570312 -6.726562 3.773438 -6.75 3.984375 -6.75 C 5.117188 -6.75 6.019531 -6.4375 6.6875 -5.8125 C 7.351562 -5.1875 7.6875 -4.34375 7.6875 -3.28125 C 7.6875 -2.175781 7.34375 -1.316406 6.65625 -0.703125 C 5.976562 -0.0976562 5.015625 0.203125 3.765625 0.203125 C 3.335938 0.203125 2.898438 0.164062 2.453125 0.09375 C 2.015625 0.0195312 1.554688 -0.0859375 1.078125 -0.234375 L 1.078125 -1.625 C 1.492188 -1.40625 1.921875 -1.238281 2.359375 -1.125 C 2.796875 -1.019531 3.253906 -0.96875 3.734375 -0.96875 C 4.523438 -0.96875 5.148438 -1.171875 5.609375 -1.578125 C 6.066406 -1.992188 6.296875 -2.5625 6.296875 -3.28125 C 6.296875 -3.988281 6.066406 -4.546875 5.609375 -4.953125 C 5.148438 -5.367188 4.523438 -5.578125 3.734375 -5.578125 C 3.367188 -5.578125 3 -5.535156 2.625 -5.453125 C 2.257812 -5.378906 1.890625 -5.253906 1.515625 -5.078125 Z M 1.515625 -10.203125 "/>
</g>
<g id="glyph-1-0-ae3de715">
<path d="M 4.453125 -9.296875 C 3.742188 -9.296875 3.207031 -8.945312 2.84375 -8.25 C 2.488281 -7.550781 2.3125 -6.5 2.3125 -5.09375 C 2.3125 -3.695312 2.488281 -2.644531 2.84375 -1.9375 C 3.207031 -1.238281 3.742188 -0.890625 4.453125 -0.890625 C 5.171875 -0.890625 5.707031 -1.238281 6.0625 -1.9375 C 6.414062 -2.644531 6.59375 -3.695312 6.59375 -5.09375 C 6.59375 -6.5 6.414062 -7.550781 6.0625 -8.25 C 5.707031 -8.945312 5.171875 -9.296875 4.453125 -9.296875 Z M 4.453125 -10.390625 C 5.597656 -10.390625 6.472656 -9.9375 7.078125 -9.03125 C 7.679688 -8.125 7.984375 -6.8125 7.984375 -5.09375 C 7.984375 -3.375 7.679688 -2.0625 7.078125 -1.15625 C 6.472656 -0.25 5.597656 0.203125 4.453125 0.203125 C 3.304688 0.203125 2.429688 -0.25 1.828125 -1.15625 C 1.222656 -2.0625 0.921875 -3.375 0.921875 -5.09375 C 0.921875 -6.8125 1.222656 -8.125 1.828125 -9.03125 C 2.429688 -9.9375 3.304688 -10.390625 4.453125 -10.390625 Z M 4.453125 -10.390625 "/>
</g>
<g id="glyph-1-1-ae3de715">
<path d="M 1.5 -1.734375 L 2.9375 -1.734375 L 2.9375 0 L 1.5 0 Z M 1.5 -1.734375 "/>
</g>
<g id="glyph-1-2-ae3de715">
<path d="M 1.515625 -10.203125 L 6.9375 -10.203125 L 6.9375 -9.046875 L 2.78125 -9.046875 L 2.78125 -6.546875 C 2.976562 -6.609375 3.175781 -6.65625 3.375 -6.6875 C 3.570312 -6.726562 3.773438 -6.75 3.984375 -6.75 C 5.117188 -6.75 6.019531 -6.4375 6.6875 -5.8125 C 7.351562 -5.1875 7.6875 -4.34375 7.6875 -3.28125 C 7.6875 -2.175781 7.34375 -1.316406 6.65625 -0.703125 C 5.976562 -0.0976562 5.015625 0.203125 3.765625 0.203125 C 3.335938 0.203125 2.898438 0.164062 2.453125 0.09375 C 2.015625 0.0195312 1.554688 -0.0859375 1.078125 -0.234375 L 1.078125 -1.625 C 1.492188 -1.40625 1.921875 -1.238281 2.359375 -1.125 C 2.796875 -1.019531 3.253906 -0.96875 3.734375 -0.96875 C 4.523438 -0.96875 5.148438 -1.171875 5.609375 -1.578125 C 6.066406 -1.992188 6.296875 -2.5625 6.296875 -3.28125 C 6.296875 -3.988281 6.066406 -4.546875 5.609375 -4.953125 C 5.148438 -5.367188 4.523438 -5.578125 3.734375 -5.578125 C 3.367188 -5.578125 3 -5.535156 2.625 -5.453125 C 2.257812 -5.378906 1.890625 -5.253906 1.515625 -5.078125 Z M 1.515625 -10.203125 "/>
</g>
<g id="glyph-2-0-ae3de715">
<path d="M 7.671875 0 C 7.671875 0 5.375 0 5.375 0 C 5.375 0 3.5625 -3.328125 3.5625 -3.328125 C 3.5625 -3.328125 2.78125 -2.484375 2.78125 -2.484375 C 2.78125 -2.484375 2.78125 0 2.78125 0 C 2.78125 0 0.828125 0 0.828125 0 C 0.828125 0 0.828125 -10.203125 0.828125 -10.203125 C 0.828125 -10.203125 2.78125 -10.203125 2.78125 -10.203125 C 2.78125 -10.203125 2.78125 -4.625 2.78125 -4.625 C 2.78125 -4.625 5.265625 -7.5625 5.265625 -7.5625 C 5.265625 -7.5625 7.484375 -7.5625 7.484375 -7.5625 C 7.484375 -7.5625 4.90625 -4.703125 4.90625 -4.703125 C 4.90625 -4.703125 7.671875 0 7.671875 0 Z M 7.671875 0 "/>
</g>
<g id="glyph-2-1-ae3de715">
</g>
<g id="glyph-2-2-ae3de715">
<path d="M 7.34375 -4.078125 C 7.34375 -4.078125 0.84375 -4.078125 0.84375 -4.078125 C 0.84375 -4.078125 0.84375 -5.46875 0.84375 -5.46875 C 0.84375 -5.46875 7.34375 -5.46875 7.34375 -5.46875 C 7.34375 -5.46875 7.34375 -4.078125 7.34375 -4.078125 Z M 7.34375 -1.53125 C 7.34375 -1.53125 0.84375 -1.53125 0.84375 -1.53125 C 0.84375 -1.53125 0.84375 -2.921875 0.84375 -2.921875 C 0.84375 -2.921875 7.34375 -2.921875 7.34375 -2.921875 C 7.34375 -2.921875 7.34375 -1.53125 7.34375 -1.53125 Z M 7.34375 -1.53125 "/>
</g>
<g id="glyph-2-3-ae3de715">
<path d="M 7.21875 -5.390625 C 7.21875 -1.875 6.0625 0.125 3.5625 0.125 C 1.859375 0.125 0.578125 -1 0.53125 -2.515625 C 0.53125 -2.515625 2.421875 -2.515625 2.421875 -2.515625 C 2.46875 -1.9375 2.9375 -1.546875 3.625 -1.546875 C 4.734375 -1.546875 5.265625 -2.484375 5.265625 -4.375 C 4.578125 -3.609375 4.234375 -3.40625 3.359375 -3.40625 C 1.59375 -3.40625 0.390625 -4.703125 0.390625 -6.75 C 0.390625 -8.8125 1.75 -10.140625 3.734375 -10.140625 C 5.765625 -10.140625 7.21875 -8.859375 7.21875 -5.390625 Z M 5.21875 -6.75 C 5.21875 -7.90625 4.640625 -8.546875 3.6875 -8.546875 C 2.8125 -8.546875 2.25 -7.921875 2.25 -6.78125 C 2.25 -5.640625 2.8125 -5.03125 3.703125 -5.03125 C 4.609375 -5.03125 5.21875 -5.65625 5.21875 -6.75 Z M 5.21875 -6.75 "/>
</g>
<g id="glyph-2-4-ae3de715">
<path d="M 3 -0.125 C 3 0.96875 2.796875 1.484375 2.234375 1.921875 C 1.859375 2.21875 1.46875 2.359375 0.890625 2.4375 C 0.890625 2.4375 0.890625 1.65625 0.890625 1.65625 C 1.71875 1.484375 2.09375 1 2.09375 0.046875 C 2.09375 0.046875 2.09375 0 2.09375 0 C 2.09375 0 0.890625 0 0.890625 0 C 0.890625 0 0.890625 -2.046875 0.890625 -2.046875 C 0.890625 -2.046875 3 -2.046875 3 -2.046875 C 3 -2.046875 3 -0.125 3 -0.125 Z M 3 -0.125 "/>
</g>
<g id="glyph-2-5-ae3de715">
<path d="M 7.640625 0 C 7.640625 0 5.6875 0 5.6875 0 C 5.6875 0 5.6875 -4.65625 5.6875 -4.65625 C 5.6875 -5.5625 5.265625 -6.015625 4.421875 -6.015625 C 3.46875 -6.015625 2.84375 -5.4375 2.84375 -4.53125 C 2.84375 -4.53125 2.84375 0 2.84375 0 C 2.84375 0 0.875 0 0.875 0 C 0.875 0 0.875 -7.5625 0.875 -7.5625 C 0.875 -7.5625 2.84375 -7.5625 2.84375 -7.5625 C 2.84375 -7.5625 2.84375 -6.46875 2.84375 -6.46875 C 3.40625 -7.3125 4.09375 -7.6875 5.109375 -7.6875 C 6.71875 -7.6875 7.640625 -6.734375 7.640625 -5.0625 C 7.640625 -5.0625 7.640625 0 7.640625 0 Z M 7.640625 0 "/>
</g>
<g id="glyph-2-6-ae3de715">
<path d="M 7.3125 -2.203125 C 7.3125 -2.203125 6.265625 -2.203125 6.265625 -2.203125 C 6.265625 -2.203125 6.265625 0 6.265625 0 C 6.265625 0 4.3125 0 4.3125 0 C 4.3125 0 4.3125 -2.203125 4.3125 -2.203125 C 4.3125 -2.203125 0.34375 -2.203125 0.34375 -2.203125 C 0.34375 -2.203125 0.34375 -3.84375 0.34375 -3.84375 C 0.34375 -3.84375 3.96875 -9.921875 3.96875 -9.921875 C 3.96875 -9.921875 6.265625 -9.921875 6.265625 -9.921875 C 6.265625 -9.921875 6.265625 -3.828125 6.265625 -3.828125 C 6.265625 -3.828125 7.3125 -3.828125 7.3125 -3.828125 C 7.3125 -3.828125 7.3125 -2.203125 7.3125 -2.203125 Z M 4.3125 -3.828125 C 4.3125 -3.828125 4.3125 -8.0625 4.3125 -8.0625 C 4.3125 -8.0625 1.71875 -3.828125 1.71875 -3.828125 C 1.71875 -3.828125 4.3125 -3.828125 4.3125 -3.828125 Z M 4.3125 -3.828125 "/>
</g>
<g id="glyph-2-7-ae3de715">
<path d="M 7.234375 -4.9375 C 7.234375 -1.015625 5.84375 0.125 3.828125 0.125 C 0.953125 0.125 0.40625 -2.21875 0.40625 -5 C 0.40625 -7.859375 0.984375 -10.140625 3.828125 -10.140625 C 6.734375 -10.140625 7.234375 -7.75 7.234375 -4.9375 Z M 5.28125 -4.984375 C 5.28125 -8.0625 4.78125 -8.546875 3.828125 -8.546875 C 2.765625 -8.546875 2.359375 -7.890625 2.359375 -5.015625 C 2.359375 -2.0625 2.828125 -1.546875 3.828125 -1.546875 C 4.875 -1.546875 5.28125 -2.203125 5.28125 -4.984375 Z M 5.28125 -4.984375 "/>
</g>
</g>
</defs>
<rect x="-60" y="-45" width="720" height="540" fill="rgb(100%, 100%, 100%)" fill-opacity="1"/>
<path fill-rule="nonzero" fill="rgb(100%, 100%, 100%)" fill-opacity="1" d="M 47 411 L 553 411 L 553 36 L 47 36 Z M 47 411 "/>
<path fill-rule="nonzero" fill="rgb(100%, 100%, 100%)" fill-opacity="1" d="M 47 411 L 553 411 L 553 36 L 47 36 Z M 47 411 "/>
<path fill="none" stroke-width="1" stroke-linecap="butt" stroke-linejoin="miter" stroke="rgb(0%, 0%, 0%)" stroke-opacity="0.12" stroke-miterlimit="1.154701" d="M 70 411 L 70 36 "/>
<path fill="none" stroke-width="1" stroke-linecap="butt" stroke-linejoin="miter" stroke="rgb(0%, 0%, 0%)" stroke-opacity="0.12" stroke-miterlimit="1.154701" d="M 146.667969 411 L 146.667969 36 "/>
<path fill="none" stroke-width="1" stroke-linecap="butt" stroke-linejoin="miter" stroke="rgb(0%, 0%, 0%)" stroke-opacity="0.12" stroke-miterlimit="1.154701" d="M 223.332031 411 L 223.332031 36 "/>
<path fill="none" stroke-width="1" stroke-linecap="butt" stroke-linejoin="miter" stroke="rgb(0%, 0%, 0%)" stroke-opacity="0.12" stroke-miterlimit="1.154701" d="M 300 411 L 300 36 "/>
<path fill="none" stroke-width="1" stroke-linecap="butt" stroke-linejoin="miter" stroke="rgb(0%, 0%, 0%)" stroke-opacity="0.12" stroke-miterlimit="1.154701" d="M 376.667969 411 L 376.667969 36 "/>
<path fill="none" stroke-width="1" stroke-linecap="butt" stroke-linejoin="miter" stroke="rgb(0%, 0%, 0%)" stroke-opacity="0.12" stroke-miterlimit="1.154701" d="M 453.332031 411 L 453.332031 36 "/>
<path fill="none" stroke-width="1" stroke-linecap="butt" stroke-linejoin="miter" stroke="rgb(0%, 0%, 0%)" stroke-opacity="0.12" stroke-miterlimit="1.154701" d="M 530 411 L 530 36 "/>
<path fill="none" stroke-width="1" stroke-linecap="butt" stroke-linejoin="miter" stroke="rgb(0%, 0%, 0%)" stroke-opacity="0.12" stroke-miterlimit="1.154701" d="M 47 393.953125 L 553 393.953125 "/>
<path fill="none" stroke-width="1" stroke-linecap="butt" stroke-linejoin="miter" stroke="rgb(0%, 0%, 0%)" stroke-opacity="0.12" stroke-miterlimit="1.154701" d="M 47 242.734375 L 553 242.734375 "/>
<path fill="none" stroke-width="1" stroke-linecap="butt" stroke-linejoin="miter" stroke="rgb(0%, 0%, 0%)" stroke-opacity="0.12" stroke-miterlimit="1.154701" d="M 47 91.511719 L 553 91.511719 "/>
<path fill="none" stroke-width="1" stroke-linecap="butt" stroke-linejoin="miter" stroke="rgb(0%, 0%, 0%)" stroke-opacity="0.12" stroke-miterlimit="1.154701" d="M 553 393.953125 L 47 393.953125 "/>
<path fill="none" stroke-width="1" stroke-linecap="butt" stroke-linejoin="miter" stroke="rgb(0%, 0%, 0%)" stroke-opacity="0.12" stroke-miterlimit="1.154701" d="M 553 223.5 L 47 223.5 "/>
<path fill="none" stroke-width="1" stroke-linecap="butt" stroke-linejoin="miter" stroke="rgb(0%, 0%, 0%)" stroke-opacity="0.12" stroke-miterlimit="1.154701" d="M 553 53.046875 L 47 53.046875 "/>
<g fill="rgb(0%, 0%, 0%)" fill-opacity="1">
<use xlink:href="#glyph-0-0-ae3de715" x="59.681154" y="431.995117"/>
<use xlink:href="#glyph-0-1-ae3de715" x="71.411623" y="431.995117"/>
</g>
<g fill="rgb(0%, 0%, 0%)" fill-opacity="1">
<use xlink:href="#glyph-0-0-ae3de715" x="136.347827" y="431.995117"/>
<use xlink:href="#glyph-0-2-ae3de715" x="148.078296" y="431.995117"/>
</g>
<g fill="rgb(0%, 0%, 0%)" fill-opacity="1">
<use xlink:href="#glyph-0-0-ae3de715" x="213.014486" y="431.995117"/>
<use xlink:href="#glyph-0-3-ae3de715" x="224.744955" y="431.995117"/>
</g>
<g fill="rgb(0%, 0%, 0%)" fill-opacity="1">
<use xlink:href="#glyph-0-4-ae3de715" x="295.546394" y="431.995117"/>
</g>
<g fill="rgb(0%, 0%, 0%)" fill-opacity="1">
<use xlink:href="#glyph-0-3-ae3de715" x="372.213052" y="431.995117"/>
</g>
<g fill="rgb(0%, 0%, 0%)" fill-opacity="1">
<use xlink:href="#glyph-0-2-ae3de715" x="448.879741" y="431.995117"/>
</g>
<g fill="rgb(0%, 0%, 0%)" fill-opacity="1">
<use xlink:href="#glyph-0-1-ae3de715" x="525.546399" y="431.995117"/>
</g>
<g fill="rgb(0%, 0%, 0%)" fill-opacity="1">
<use xlink:href="#glyph-0-4-ae3de715" x="14.735352" y="398.801223"/>
<use xlink:href="#glyph-0-5-ae3de715" x="23.642579" y="398.801223"/>
<use xlink:href="#glyph-0-4-ae3de715" x="28.092774" y="398.801223"/>
</g>
<g fill="rgb(0%, 0%, 0%)" fill-opacity="1">
<use xlink:href="#glyph-1-0-ae3de715" x="14.735352" y="247.580424"/>
<use xlink:href="#glyph-1-1-ae3de715" x="23.642579" y="247.580424"/>
<use xlink:href="#glyph-1-2-ae3de715" x="28.092774" y="247.580424"/>
</g>
<g fill="rgb(0%, 0%, 0%)" fill-opacity="1">
<use xlink:href="#glyph-0-3-ae3de715" x="14.735352" y="96.359641"/>
<use xlink:href="#glyph-0-5-ae3de715" x="23.642579" y="96.359641"/>
<use xlink:href="#glyph-0-4-ae3de715" x="28.092774" y="96.359641"/>
</g>
<g fill="rgb(0%, 0%, 0%)" fill-opacity="1">
<use xlink:href="#glyph-2-0-ae3de715" x="256.411013" y="28.94799"/>
<use xlink:href="#glyph-2-1-ae3de715" x="264.195014" y="28.94799"/>
<use xlink:href="#glyph-2-2-ae3de715" x="268.087012" y="28.94799"/>
<use xlink:href="#glyph-2-1-ae3de715" x="276.263013" y="28.94799"/>
<use xlink:href="#glyph-2-3-ae3de715" x="280.155013" y="28.94799"/>
<use xlink:href="#glyph-2-4-ae3de715" x="287.939014" y="28.94799"/>
<use xlink:href="#glyph-2-1-ae3de715" x="291.831012" y="28.94799"/>
<use xlink:href="#glyph-2-5-ae3de715" x="295.723011" y="28.94799"/>
<use xlink:href="#glyph-2-1-ae3de715" x="304.277012" y="28.94799"/>
<use xlink:href="#glyph-2-2-ae3de715" x="308.16901" y="28.94799"/>
<use xlink:href="#glyph-2-1-ae3de715" x="316.345009" y="28.94799"/>
<use xlink:href="#glyph-2-6-ae3de715" x="320.237007" y="28.94799"/>
<use xlink:href="#glyph-2-7-ae3de715" x="328.021008" y="28.94799"/>
<use xlink:href="#glyph-2-7-ae3de715" x="335.805005" y="28.94799"/>
</g>
<path fill-rule="nonzero" fill="rgb(19.999999%, 55.764699%, 75.843138%)" fill-opacity="1" d="M 214.285156 393.953125 L 216.394531 393.953125 L 216.394531 391.753906 L 214.285156 391.753906 Z M 214.285156 393.953125 "/>
<path fill-rule="nonzero" fill="rgb(19.999999%, 55.764699%, 75.843138%)" fill-opacity="1" d="M 216.394531 393.953125 L 218.503906 393.953125 L 218.503906 392.851562 L 216.394531 392.851562 Z M 216.394531 393.953125 "/>
<path fill-rule="nonzero" fill="rgb(19.999999%, 55.764699%, 75.843138%)" fill-opacity="1" d="M 218.503906 393.953125 L 220.613281 393.953125 L 220.613281 391.753906 L 218.503906 391.753906 Z M 218.503906 393.953125 "/>
<path fill-rule="nonzero" fill="rgb(19.999999%, 55.764699%, 75.843138%)" fill-opacity="1" d="M 220.613281 393.953125 L 222.722656 393.953125 L 222.722656 392.851562 L 220.613281 392.851562 Z M 220.613281 393.953125 "/>
<path fill-rule="nonzero" fill="rgb(19.999999%, 55.764699%, 75.843138%)" fill-opacity="1" d="M 222.71875 393.953125 L 224.828125 393.953125 L 224.828125 391.753906 L 222.71875 391.753906 Z M 222.71875 393.953125 "/>
<path fill-rule="nonzero" fill="rgb(19.999999%, 55.764699%, 75.843138%)" fill-opacity="1" d="M 224.828125 393.953125 L 226.9375 393.953125 L 226.9375 391.753906 L 224.828125 391.753906 Z M 224.828125 393.953125 "/>
<path fill-rule="nonzero" fill="rgb(19.999999%, 55.764699%, 75.843138%)" fill-opacity="1" d="M 226.9375 393.953125 L 229.046875 393.953125 L 229.046875 390.652344 L 226.9375 390.652344 Z M 226.9375 393.953125 "/>
<path fill-rule="nonzero" fill="rgb(19.999999%, 55.764699%, 75.843138%)" fill-opacity="1" d="M 229.046875 393.953125 L 231.15625 393.953125 L 231.15625 386.253906 L 229.046875 386.253906 Z M 229.046875 393.953125 "/>
<path fill-rule="nonzero" fill="rgb(19.999999%, 55.764699%, 75.843138%)" fill-opacity="1" d="M 231.152344 393.953125 L 233.261719 393.953125 L 233.261719 390.652344 L 231.152344 390.652344 Z M 231.152344 393.953125 "/>
<path fill-rule="nonzero" fill="rgb(19.999999%, 55.764699%, 75.843138%)" fill-opacity="1" d="M 233.261719 393.953125 L 235.371094 393.953125 L 235.371094 389.554688 L 233.261719 389.554688 Z M 233.261719 393.953125 "/>
<path fill-rule="nonzero" fill="rgb(19.999999%, 55.764699%, 75.843138%)" fill-opacity="1" d="M 235.371094 393.953125 L 237.480469 393.953125 L 237.480469 388.453125 L 235.371094 388.453125 Z M 235.371094 393.953125 "/>
<path fill-rule="nonzero" fill="rgb(19.999999%, 55.764699%, 75.843138%)" fill-opacity="1" d="M 237.480469 393.953125 L 239.589844 393.953125 L 239.589844 389.554688 L 237.480469 389.554688 Z M 237.480469 393.953125 "/>
<path fill-rule="nonzero" fill="rgb(19.999999%, 55.764699%, 75.843138%)" fill-opacity="1" d="M 239.589844 393.953125 L 241.699219 393.953125 L 241.699219 386.253906 L 239.589844 386.253906 Z M 239.589844 393.953125 "/>
<path fill-rule="nonzero" fill="rgb(19.999999%, 55.764699%, 75.843138%)" fill-opacity="1" d="M 241.695312 393.953125 L 243.804688 393.953125 L 243.804688 378.558594 L 241.695312 378.558594 Z M 241.695312 393.953125 "/>
<path fill-rule="nonzero" fill="rgb(19.999999%, 55.764699%, 75.843138%)" fill-opacity="1" d="M 243.804688 393.953125 L 245.914062 393.953125 L 245.914062 377.457031 L 243.804688 377.457031 Z M 243.804688 393.953125 "/>
<path fill-rule="nonzero" fill="rgb(19.999999%, 55.764699%, 75.843138%)" fill-opacity="1" d="M 245.914062 393.953125 L 248.023438 393.953125 L 248.023438 381.855469 L 245.914062 381.855469 Z M 245.914062 393.953125 "/>
<path fill-rule="nonzero" fill="rgb(19.999999%, 55.764699%, 75.843138%)" fill-opacity="1" d="M 248.023438 393.953125 L 250.132812 393.953125 L 250.132812 377.457031 L 248.023438 377.457031 Z M 248.023438 393.953125 "/>
<path fill-rule="nonzero" fill="rgb(19.999999%, 55.764699%, 75.843138%)" fill-opacity="1" d="M 250.128906 393.953125 L 252.238281 393.953125 L 252.238281 381.855469 L 250.128906 381.855469 Z M 250.128906 393.953125 "/>
<path fill-rule="nonzero" fill="rgb(19.999999%, 55.764699%, 75.843138%)" fill-opacity="1" d="M 252.238281 393.953125 L 254.347656 393.953125 L 254.347656 381.855469 L 252.238281 381.855469 Z M 252.238281 393.953125 "/>
<path fill-rule="nonzero" fill="rgb(19.999999%, 55.764699%, 75.843138%)" fill-opacity="1" d="M 254.347656 393.953125 L 256.457031 393.953125 L 256.457031 371.960938 L 254.347656 371.960938 Z M 254.347656 393.953125 "/>
<path fill-rule="nonzero" fill="rgb(19.999999%, 55.764699%, 75.843138%)" fill-opacity="1" d="M 256.457031 393.953125 L 258.566406 393.953125 L 258.566406 377.457031 L 256.457031 377.457031 Z M 256.457031 393.953125 "/>
<path fill-rule="nonzero" fill="rgb(19.999999%, 55.764699%, 75.843138%)" fill-opacity="1" d="M 258.5625 393.953125 L 260.671875 393.953125 L 260.671875 369.757812 L 258.5625 369.757812 Z M 258.5625 393.953125 "/>
<path fill-rule="nonzero" fill="rgb(19.999999%, 55.764699%, 75.843138%)" fill-opacity="1" d="M 260.671875 393.953125 L 262.78125 393.953125 L 262.78125 366.460938 L 260.671875 366.460938 Z M 260.671875 393.953125 "/>
<path fill-rule="nonzero" fill="rgb(19.999999%, 55.764699%, 75.843138%)" fill-opacity="1" d="M 262.78125 393.953125 L 264.890625 393.953125 L 264.890625 351.066406 L 262.78125 351.066406 Z M 262.78125 393.953125 "/>
<path fill-rule="nonzero" fill="rgb(19.999999%, 55.764699%, 75.843138%)" fill-opacity="1" d="M 264.890625 393.953125 L 267 393.953125 L 267 360.960938 L 264.890625 360.960938 Z M 264.890625 393.953125 "/>
<path fill-rule="nonzero" fill="rgb(19.999999%, 55.764699%, 75.843138%)" fill-opacity="1" d="M 267 393.953125 L 269.109375 393.953125 L 269.109375 354.363281 L 267 354.363281 Z M 267 393.953125 "/>
<path fill-rule="nonzero" fill="rgb(19.999999%, 55.764699%, 75.843138%)" fill-opacity="1" d="M 269.105469 393.953125 L 271.214844 393.953125 L 271.214844 343.367188 L 269.105469 343.367188 Z M 269.105469 393.953125 "/>
<path fill-rule="nonzero" fill="rgb(19.999999%, 55.764699%, 75.843138%)" fill-opacity="1" d="M 271.214844 393.953125 L 273.324219 393.953125 L 273.324219 324.671875 L 271.214844 324.671875 Z M 271.214844 393.953125 "/>
<path fill-rule="nonzero" fill="rgb(19.999999%, 55.764699%, 75.843138%)" fill-opacity="1" d="M 273.324219 393.953125 L 275.433594 393.953125 L 275.433594 331.269531 L 273.324219 331.269531 Z M 273.324219 393.953125 "/>
<path fill-rule="nonzero" fill="rgb(19.999999%, 55.764699%, 75.843138%)" fill-opacity="1" d="M 275.433594 393.953125 L 277.542969 393.953125 L 277.542969 314.773438 L 275.433594 314.773438 Z M 275.433594 393.953125 "/>
<path fill-rule="nonzero" fill="rgb(19.999999%, 55.764699%, 75.843138%)" fill-opacity="1" d="M 277.539062 393.953125 L 279.648438 393.953125 L 279.648438 314.773438 L 277.539062 314.773438 Z M 277.539062 393.953125 "/>
<path fill-rule="nonzero" fill="rgb(19.999999%, 55.764699%, 75.843138%)" fill-opacity="1" d="M 279.648438 393.953125 L 281.757812 393.953125 L 281.757812 294.980469 L 279.648438 294.980469 Z M 279.648438 393.953125 "/>
<path fill-rule="nonzero" fill="rgb(19.999999%, 55.764699%, 75.843138%)" fill-opacity="1" d="M 281.757812 393.953125 L 283.867188 393.953125 L 283.867188 305.976562 L 281.757812 305.976562 Z M 281.757812 393.953125 "/>
<path fill-rule="nonzero" fill="rgb(19.999999%, 55.764699%, 75.843138%)" fill-opacity="1" d="M 283.867188 393.953125 L 285.976562 393.953125 L 285.976562 289.480469 L 283.867188 289.480469 Z M 283.867188 393.953125 "/>
<path fill-rule="nonzero" fill="rgb(19.999999%, 55.764699%, 75.843138%)" fill-opacity="1" d="M 285.976562 393.953125 L 288.085938 393.953125 L 288.085938 272.984375 L 285.976562 272.984375 Z M 285.976562 393.953125 "/>
<path fill-rule="nonzero" fill="rgb(19.999999%, 55.764699%, 75.843138%)" fill-opacity="1" d="M 288.082031 393.953125 L 290.191406 393.953125 L 290.191406 265.289062 L 288.082031 265.289062 Z M 288.082031 393.953125 "/>
<path fill-rule="nonzero" fill="rgb(19.999999%, 55.764699%, 75.843138%)" fill-opacity="1" d="M 290.191406 393.953125 L 292.300781 393.953125 L 292.300781 255.390625 L 290.191406 255.390625 Z M 290.191406 393.953125 "/>
<path fill-rule="nonzero" fill="rgb(19.999999%, 55.764699%, 75.843138%)" fill-opacity="1" d="M 292.300781 393.953125 L 294.410156 393.953125 L 294.410156 255.390625 L 292.300781 255.390625 Z M 292.300781 393.953125 "/>
<path fill-rule="nonzero" fill="rgb(19.999999%, 55.764699%, 75.843138%)" fill-opacity="1" d="M 294.410156 393.953125 L 296.519531 393.953125 L 296.519531 249.890625 L 294.410156 249.890625 Z M 294.410156 393.953125 "/>
<path fill-rule="nonzero" fill="rgb(19.999999%, 55.764699%, 75.843138%)" fill-opacity="1" d="M 296.515625 393.953125 L 298.625 393.953125 L 298.625 218 L 296.515625 218 Z M 296.515625 393.953125 "/>
<path fill-rule="nonzero" fill="rgb(19.999999%, 55.764699%, 75.843138%)" fill-opacity="1" d="M 298.625 393.953125 L 300.734375 393.953125 L 300.734375 202.605469 L 298.625 202.605469 Z M 298.625 393.953125 "/>
<path fill-rule="nonzero" fill="rgb(19.999999%, 55.764699%, 75.843138%)" fill-opacity="1" d="M 300.734375 393.953125 L 302.84375 393.953125 L 302.84375 179.511719 L 300.734375 179.511719 Z M 300.734375 393.953125 "/>
<path fill-rule="nonzero" fill="rgb(19.999999%, 55.764699%, 75.843138%)" fill-opacity="1" d="M 302.84375 393.953125 L 304.953125 393.953125 L 304.953125 188.308594 L 302.84375 188.308594 Z M 302.84375 393.953125 "/>
<path fill-rule="nonzero" fill="rgb(19.999999%, 55.764699%, 75.843138%)" fill-opacity="1" d="M 304.949219 393.953125 L 307.058594 393.953125 L 307.058594 188.308594 L 304.949219 188.308594 Z M 304.949219 393.953125 "/>
<path fill-rule="nonzero" fill="rgb(19.999999%, 55.764699%, 75.843138%)" fill-opacity="1" d="M 307.058594 393.953125 L 309.167969 393.953125 L 309.167969 128.921875 L 307.058594 128.921875 Z M 307.058594 393.953125 "/>
<path fill-rule="nonzero" fill="rgb(19.999999%, 55.764699%, 75.843138%)" fill-opacity="1" d="M 309.167969 393.953125 L 311.277344 393.953125 L 311.277344 150.917969 L 309.167969 150.917969 Z M 309.167969 393.953125 "/>
<path fill-rule="nonzero" fill="rgb(19.999999%, 55.764699%, 75.843138%)" fill-opacity="1" d="M 311.277344 393.953125 L 313.386719 393.953125 L 313.386719 147.617188 L 311.277344 147.617188 Z M 311.277344 393.953125 "/>
<path fill-rule="nonzero" fill="rgb(19.999999%, 55.764699%, 75.843138%)" fill-opacity="1" d="M 313.386719 393.953125 L 315.496094 393.953125 L 315.496094 117.925781 L 313.386719 117.925781 Z M 313.386719 393.953125 "/>
<path fill-rule="nonzero" fill="rgb(19.999999%, 55.764699%, 75.843138%)" fill-opacity="1" d="M 315.492188 393.953125 L 317.601562 393.953125 L 317.601562 86.035156 L 315.492188 86.035156 Z M 315.492188 393.953125 "/>
<path fill-rule="nonzero" fill="rgb(19.999999%, 55.764699%, 75.843138%)" fill-opacity="1" d="M 317.601562 393.953125 L 319.710938 393.953125 L 319.710938 83.835938 L 317.601562 83.835938 Z M 317.601562 393.953125 "/>
<path fill-rule="nonzero" fill="rgb(19.999999%, 55.764699%, 75.843138%)" fill-opacity="1" d="M 319.710938 393.953125 L 321.820312 393.953125 L 321.820312 99.230469 L 319.710938 99.230469 Z M 319.710938 393.953125 "/>
<path fill-rule="nonzero" fill="rgb(19.999999%, 55.764699%, 75.843138%)" fill-opacity="1" d="M 321.820312 393.953125 L 323.929688 393.953125 L 323.929688 64.042969 L 321.820312 64.042969 Z M 321.820312 393.953125 "/>
<path fill-rule="nonzero" fill="rgb(19.999999%, 55.764699%, 75.843138%)" fill-opacity="1" d="M 323.925781 393.953125 L 326.035156 393.953125 L 326.035156 76.136719 L 323.925781 76.136719 Z M 323.925781 393.953125 "/>
<path fill-rule="nonzero" fill="rgb(19.999999%, 55.764699%, 75.843138%)" fill-opacity="1" d="M 326.035156 393.953125 L 328.144531 393.953125 L 328.144531 60.742188 L 326.035156 60.742188 Z M 326.035156 393.953125 "/>
<path fill-rule="nonzero" fill="rgb(19.999999%, 55.764699%, 75.843138%)" fill-opacity="1" d="M 328.144531 393.953125 L 330.253906 393.953125 L 330.253906 60.742188 L 328.144531 60.742188 Z M 328.144531 393.953125 "/>
<path fill-rule="nonzero" fill="rgb(19.999999%, 55.764699%, 75.843138%)" fill-opacity="1" d="M 330.253906 393.953125 L 332.363281 393.953125 L 332.363281 83.835938 L 330.253906 83.835938 Z M 330.253906 393.953125 "/>
<path fill-rule="nonzero" fill="rgb(19.999999%, 55.764699%, 75.843138%)" fill-opacity="1" d="M 332.363281 393.953125 L 334.472656 393.953125 L 334.472656 53.042969 L 332.363281 53.042969 Z M 332.363281 393.953125 "/>
<path fill-rule="nonzero" fill="rgb(19.999999%, 55.764699%, 75.843138%)" fill-opacity="1" d="M 334.46875 393.953125 L 336.578125 393.953125 L 336.578125 70.640625 L 334.46875 70.640625 Z M 334.46875 393.953125 "/>
<path fill-rule="nonzero" fill="rgb(19.999999%, 55.764699%, 75.843138%)" fill-opacity="1" d="M 336.578125 393.953125 L 338.6875 393.953125 L 338.6875 87.136719 L 336.578125 87.136719 Z M 336.578125 393.953125 "/>
<path fill-rule="nonzero" fill="rgb(19.999999%, 55.764699%, 75.843138%)" fill-opacity="1" d="M 338.6875 393.953125 L 340.796875 393.953125 L 340.796875 60.742188 L 338.6875 60.742188 Z M 338.6875 393.953125 "/>
<path fill-rule="nonzero" fill="rgb(19.999999%, 55.764699%, 75.843138%)" fill-opacity="1" d="M 340.796875 393.953125 L 342.90625 393.953125 L 342.90625 79.4375 L 340.796875 79.4375 Z M 340.796875 393.953125 "/>
<path fill-rule="nonzero" fill="rgb(19.999999%, 55.764699%, 75.843138%)" fill-opacity="1" d="M 342.902344 393.953125 L 345.011719 393.953125 L 345.011719 137.722656 L 342.902344 137.722656 Z M 342.902344 393.953125 "/>
<path fill-rule="nonzero" fill="rgb(19.999999%, 55.764699%, 75.843138%)" fill-opacity="1" d="M 345.011719 393.953125 L 347.121094 393.953125 L 347.121094 121.226562 L 345.011719 121.226562 Z M 345.011719 393.953125 "/>
<path fill-rule="nonzero" fill="rgb(19.999999%, 55.764699%, 75.843138%)" fill-opacity="1" d="M 347.121094 393.953125 L 349.230469 393.953125 L 349.230469 130.023438 L 347.121094 130.023438 Z M 347.121094 393.953125 "/>
<path fill-rule="nonzero" fill="rgb(19.999999%, 55.764699%, 75.843138%)" fill-opacity="1" d="M 349.230469 393.953125 L 351.339844 393.953125 L 351.339844 138.820312 L 349.230469 138.820312 Z M 349.230469 393.953125 "/>
<path fill-rule="nonzero" fill="rgb(19.999999%, 55.764699%, 75.843138%)" fill-opacity="1" d="M 351.335938 393.953125 L 353.445312 393.953125 L 353.445312 174.011719 L 351.335938 174.011719 Z M 351.335938 393.953125 "/>
<path fill-rule="nonzero" fill="rgb(19.999999%, 55.764699%, 75.843138%)" fill-opacity="1" d="M 353.445312 393.953125 L 355.554688 393.953125 L 355.554688 191.605469 L 353.445312 191.605469 Z M 353.445312 393.953125 "/>
<path fill-rule="nonzero" fill="rgb(19.999999%, 55.764699%, 75.843138%)" fill-opacity="1" d="M 355.554688 393.953125 L 357.664062 393.953125 L 357.664062 198.207031 L 355.554688 198.207031 Z M 355.554688 393.953125 "/>
<path fill-rule="nonzero" fill="rgb(19.999999%, 55.764699%, 75.843138%)" fill-opacity="1" d="M 357.664062 393.953125 L 359.773438 393.953125 L 359.773438 194.90625 L 357.664062 194.90625 Z M 357.664062 393.953125 "/>
<path fill-rule="nonzero" fill="rgb(19.999999%, 55.764699%, 75.843138%)" fill-opacity="1" d="M 359.773438 393.953125 L 361.882812 393.953125 L 361.882812 211.402344 L 359.773438 211.402344 Z M 359.773438 393.953125 "/>
<path fill-rule="nonzero" fill="rgb(19.999999%, 55.764699%, 75.843138%)" fill-opacity="1" d="M 361.878906 393.953125 L 363.988281 393.953125 L 363.988281 256.488281 L 361.878906 256.488281 Z M 361.878906 393.953125 "/>
<path fill-rule="nonzero" fill="rgb(19.999999%, 55.764699%, 75.843138%)" fill-opacity="1" d="M 363.988281 393.953125 L 366.097656 393.953125 L 366.097656 228.996094 L 363.988281 228.996094 Z M 363.988281 393.953125 "/>
<path fill-rule="nonzero" fill="rgb(19.999999%, 55.764699%, 75.843138%)" fill-opacity="1" d="M 366.097656 393.953125 L 368.207031 393.953125 L 368.207031 269.6875 L 366.097656 269.6875 Z M 366.097656 393.953125 "/>
<path fill-rule="nonzero" fill="rgb(19.999999%, 55.764699%, 75.843138%)" fill-opacity="1" d="M 368.207031 393.953125 L 370.316406 393.953125 L 370.316406 292.78125 L 368.207031 292.78125 Z M 368.207031 393.953125 "/>
<path fill-rule="nonzero" fill="rgb(19.999999%, 55.764699%, 75.843138%)" fill-opacity="1" d="M 370.3125 393.953125 L 372.421875 393.953125 L 372.421875 304.875 L 370.3125 304.875 Z M 370.3125 393.953125 "/>
<path fill-rule="nonzero" fill="rgb(19.999999%, 55.764699%, 75.843138%)" fill-opacity="1" d="M 372.421875 393.953125 L 374.53125 393.953125 L 374.53125 298.277344 L 372.421875 298.277344 Z M 372.421875 393.953125 "/>
<path fill-rule="nonzero" fill="rgb(19.999999%, 55.764699%, 75.843138%)" fill-opacity="1" d="M 374.53125 393.953125 L 376.640625 393.953125 L 376.640625 322.472656 L 374.53125 322.472656 Z M 374.53125 393.953125 "/>
<path fill-rule="nonzero" fill="rgb(19.999999%, 55.764699%, 75.843138%)" fill-opacity="1" d="M 376.640625 393.953125 L 378.75 393.953125 L 378.75 335.667969 L 376.640625 335.667969 Z M 376.640625 393.953125 "/>
<path fill-rule="nonzero" fill="rgb(19.999999%, 55.764699%, 75.843138%)" fill-opacity="1" d="M 378.75 393.953125 L 380.859375 393.953125 L 380.859375 345.566406 L 378.75 345.566406 Z M 378.75 393.953125 "/>
<path fill-rule="nonzero" fill="rgb(19.999999%, 55.764699%, 75.843138%)" fill-opacity="1" d="M 380.855469 393.953125 L 382.964844 393.953125 L 382.964844 348.863281 L 380.855469 348.863281 Z M 380.855469 393.953125 "/>
<path fill-rule="nonzero" fill="rgb(19.999999%, 55.764699%, 75.843138%)" fill-opacity="1" d="M 382.964844 393.953125 L 385.074219 393.953125 L 385.074219 359.863281 L 382.964844 359.863281 Z M 382.964844 393.953125 "/>
<path fill-rule="nonzero" fill="rgb(19.999999%, 55.764699%, 75.843138%)" fill-opacity="1" d="M 385.074219 393.953125 L 387.183594 393.953125 L 387.183594 365.359375 L 385.074219 365.359375 Z M 385.074219 393.953125 "/>
<path fill-rule="nonzero" fill="rgb(19.999999%, 55.764699%, 75.843138%)" fill-opacity="1" d="M 387.183594 393.953125 L 389.292969 393.953125 L 389.292969 360.960938 L 387.183594 360.960938 Z M 387.183594 393.953125 "/>
<path fill-rule="nonzero" fill="rgb(19.999999%, 55.764699%, 75.843138%)" fill-opacity="1" d="M 389.289062 393.953125 L 391.398438 393.953125 L 391.398438 371.960938 L 389.289062 371.960938 Z M 389.289062 393.953125 "/>
<path fill-rule="nonzero" fill="rgb(19.999999%, 55.764699%, 75.843138%)" fill-opacity="1" d="M 391.398438 393.953125 L 393.507812 393.953125 L 393.507812 382.957031 L 391.398438 382.957031 Z M 391.398438 393.953125 "/>
<path fill-rule="nonzero" fill="rgb(19.999999%, 55.764699%, 75.843138%)" fill-opacity="1" d="M 393.507812 393.953125 L 395.617188 393.953125 L 395.617188 380.757812 L 393.507812 380.757812 Z M 393.507812 393.953125 "/>
<path fill-rule="nonzero" fill="rgb(19.999999%, 55.764699%, 75.843138%)" fill-opacity="1" d="M 395.617188 393.953125 L 397.726562 393.953125 L 397.726562 384.054688 L 395.617188 384.054688 Z M 395.617188 393.953125 "/>
<path fill-rule="nonzero" fill="rgb(19.999999%, 55.764699%, 75.843138%)" fill-opacity="1" d="M 397.726562 393.953125 L 399.835938 393.953125 L 399.835938 388.453125 L 397.726562 388.453125 Z M 397.726562 393.953125 "/>
<path fill-rule="nonzero" fill="rgb(19.999999%, 55.764699%, 75.843138%)" fill-opacity="1" d="M 399.832031 393.953125 L 401.941406 393.953125 L 401.941406 388.453125 L 399.832031 388.453125 Z M 399.832031 393.953125 "/>
<path fill-rule="nonzero" fill="rgb(19.999999%, 55.764699%, 75.843138%)" fill-opacity="1" d="M 401.941406 393.953125 L 404.050781 393.953125 L 404.050781 380.757812 L 401.941406 380.757812 Z M 401.941406 393.953125 "/>
<path fill-rule="nonzero" fill="rgb(19.999999%, 55.764699%, 75.843138%)" fill-opacity="1" d="M 404.050781 393.953125 L 406.160156 393.953125 L 406.160156 388.453125 L 404.050781 388.453125 Z M 404.050781 393.953125 "/>
<path fill-rule="nonzero" fill="rgb(19.999999%, 55.764699%, 75.843138%)" fill-opacity="1" d="M 406.160156 393.953125 L 408.269531 393.953125 L 408.269531 389.554688 L 406.160156 389.554688 Z M 406.160156 393.953125 "/>
<path fill-rule="nonzero" fill="rgb(19.999999%, 55.764699%, 75.843138%)" fill-opacity="1" d="M 408.265625 393.953125 L 410.375 393.953125 L 410.375 391.753906 L 408.265625 391.753906 Z M 408.265625 393.953125 "/>
<path fill-rule="nonzero" fill="rgb(19.999999%, 55.764699%, 75.843138%)" fill-opacity="1" d="M 410.375 393.953125 L 412.484375 393.953125 L 412.484375 392.851562 L 410.375 392.851562 Z M 410.375 393.953125 "/>
<path fill-rule="nonzero" fill="rgb(19.999999%, 55.764699%, 75.843138%)" fill-opacity="1" d="M 414.59375 393.953125 L 416.703125 393.953125 L 416.703125 390.652344 L 414.59375 390.652344 Z M 414.59375 393.953125 "/>
<path fill-rule="nonzero" fill="rgb(19.999999%, 55.764699%, 75.843138%)" fill-opacity="1" d="M 423.027344 393.953125 L 425.136719 393.953125 L 425.136719 392.851562 L 423.027344 392.851562 Z M 423.027344 393.953125 "/>
<g fill="rgb(0%, 0%, 0%)" fill-opacity="1">
<use xlink:href="#glyph-0-4-ae3de715" x="563.000014" y="398.801223"/>
<use xlink:href="#glyph-0-5-ae3de715" x="571.90724" y="398.801223"/>
<use xlink:href="#glyph-0-4-ae3de715" x="576.357436" y="398.801223"/>
</g>
<g fill="rgb(0%, 0%, 0%)" fill-opacity="1">
<use xlink:href="#glyph-0-4-ae3de715" x="563.000014" y="228.346674"/>
<use xlink:href="#glyph-0-5-ae3de715" x="571.90724" y="228.346674"/>
<use xlink:href="#glyph-0-6-ae3de715" x="576.357436" y="228.346674"/>
</g>
<g fill="rgb(0%, 0%, 0%)" fill-opacity="1">
<use xlink:href="#glyph-0-3-ae3de715" x="563.000014" y="57.892111"/>
<use xlink:href="#glyph-0-5-ae3de715" x="571.90724" y="57.892111"/>
<use xlink:href="#glyph-0-4-ae3de715" x="576.357436" y="57.892111"/>
</g>
<path fill="none" stroke-width="6" stroke-linecap="butt" stroke-linejoin="miter" stroke="rgb(100%, 64.705884%, 0%)" stroke-opacity="0.8" stroke-miterlimit="2" d="M 70 393.953125 L 162 393.953125 L 162.765625 393.949219 L 168.898438 393.949219 L 169.667969 393.945312 L 171.964844 393.945312 L 172.734375 393.941406 L 175.035156 393.941406 L 175.800781 393.9375 L 176.566406 393.9375 L 177.332031 393.933594 L 178.101562 393.933594 L 178.867188 393.929688 L 179.632812 393.929688 L 180.398438 393.925781 L 181.167969 393.925781 L 182.699219 393.917969 L 183.464844 393.917969 L 184.234375 393.914062 L 185.765625 393.90625 L 186.535156 393.902344 L 187.300781 393.894531 L 188.832031 393.886719 L 189.601562 393.878906 L 190.367188 393.875 L 191.898438 393.859375 L 192.667969 393.851562 L 194.199219 393.835938 L 194.964844 393.824219 L 195.734375 393.8125 L 197.265625 393.789062 L 198.035156 393.777344 L 200.332031 393.730469 L 201.101562 393.710938 L 203.398438 393.652344 L 204.167969 393.625 L 204.933594 393.601562 L 206.464844 393.546875 L 207.234375 393.515625 L 208.765625 393.445312 L 209.535156 393.40625 L 211.066406 393.320312 L 211.832031 393.273438 L 212.601562 393.222656 L 213.367188 393.171875 L 214.132812 393.113281 L 214.898438 393.050781 L 215.667969 392.988281 L 216.433594 392.917969 L 217.199219 392.84375 L 217.964844 392.761719 L 218.734375 392.679688 L 219.5 392.589844 L 220.265625 392.492188 L 221.035156 392.390625 L 221.800781 392.285156 L 222.566406 392.167969 L 223.332031 392.046875 L 224.101562 391.914062 L 224.867188 391.777344 L 225.632812 391.628906 L 226.398438 391.472656 L 227.167969 391.308594 L 227.933594 391.132812 L 228.699219 390.945312 L 229.464844 390.75 L 230.234375 390.539062 L 231 390.316406 L 231.765625 390.082031 L 232.535156 389.835938 L 233.300781 389.570312 L 234.066406 389.292969 L 234.832031 389 L 235.601562 388.6875 L 236.367188 388.359375 L 237.132812 388.015625 L 237.898438 387.648438 L 238.667969 387.265625 L 239.433594 386.859375 L 240.199219 386.429688 L 240.964844 385.976562 L 241.734375 385.503906 L 242.5 385.003906 L 243.265625 384.476562 L 244.035156 383.921875 L 244.800781 383.339844 L 245.566406 382.726562 L 246.332031 382.085938 L 247.101562 381.410156 L 247.867188 380.703125 L 248.632812 379.960938 L 249.398438 379.179688 L 250.167969 378.363281 L 250.933594 377.507812 L 251.699219 376.613281 L 252.464844 375.675781 L 253.234375 374.695312 L 254 373.671875 L 254.765625 372.597656 L 255.535156 371.480469 L 256.300781 370.3125 L 257.066406 369.089844 L 257.832031 367.820312 L 258.601562 366.492188 L 259.367188 365.109375 L 260.132812 363.667969 L 260.898438 362.171875 L 261.667969 360.609375 L 262.433594 358.988281 L 263.199219 357.304688 L 263.964844 355.550781 L 264.734375 353.734375 L 265.5 351.847656 L 266.265625 349.890625 L 267.035156 347.859375 L 267.800781 345.757812 L 268.566406 343.582031 L 269.332031 341.328125 L 270.101562 339 L 270.867188 336.589844 L 271.632812 334.105469 L 272.398438 331.535156 L 273.167969 328.882812 L 273.933594 326.152344 L 274.699219 323.335938 L 275.464844 320.433594 L 276.234375 317.445312 L 277 314.375 L 277.765625 311.21875 L 278.535156 307.972656 L 279.300781 304.640625 L 280.066406 301.226562 L 280.832031 297.722656 L 281.601562 294.132812 L 282.367188 290.460938 L 283.132812 286.699219 L 283.898438 282.855469 L 284.667969 278.929688 L 285.433594 274.921875 L 286.199219 270.832031 L 286.964844 266.667969 L 287.734375 262.421875 L 288.5 258.101562 L 289.265625 253.710938 L 290.035156 249.25 L 290.800781 244.71875 L 291.566406 240.128906 L 292.332031 235.472656 L 293.101562 230.761719 L 293.867188 225.992188 L 294.632812 221.175781 L 295.398438 216.3125 L 296.167969 211.410156 L 296.933594 206.46875 L 297.699219 201.496094 L 298.464844 196.496094 L 299.234375 191.476562 L 300 186.4375 L 300.765625 181.390625 L 301.535156 176.339844 L 302.300781 171.292969 L 303.066406 166.253906 L 303.832031 161.230469 L 304.601562 156.230469 L 305.367188 151.257812 L 306.132812 146.324219 L 306.898438 141.433594 L 307.667969 136.59375 L 308.433594 131.816406 L 309.199219 127.105469 L 309.964844 122.46875 L 310.734375 117.914062 L 311.5 113.449219 L 312.265625 109.085938 L 313.035156 104.828125 L 313.800781 100.683594 L 314.566406 96.664062 L 315.332031 92.773438 L 316.101562 89.023438 L 316.867188 85.417969 L 317.632812 81.96875 L 318.398438 78.679688 L 319.167969 75.558594 L 319.933594 72.613281 L 320.699219 69.847656 L 321.464844 67.277344 L 322.234375 64.898438 L 323 62.722656 L 323.765625 60.753906 L 324.535156 58.996094 L 325.300781 57.460938 L 326.066406 56.144531 L 326.832031 55.058594 L 327.601562 54.199219 L 328.367188 53.578125 L 329.132812 53.191406 L 329.898438 53.046875 L 330.667969 53.140625 L 331.433594 53.480469 L 332.199219 54.0625 L 332.964844 54.890625 L 333.734375 55.964844 L 334.5 57.28125 L 335.265625 58.84375 L 336.035156 60.644531 L 336.800781 62.683594 L 337.566406 64.960938 L 338.332031 67.472656 L 339.101562 70.210938 L 339.867188 73.175781 L 340.632812 76.363281 L 341.398438 79.761719 L 342.167969 83.371094 L 342.933594 87.183594 L 343.699219 91.191406 L 344.464844 95.386719 L 345.234375 99.765625 L 346 104.316406 L 346.765625 109.03125 L 347.535156 113.902344 L 348.300781 118.917969 L 349.066406 124.074219 L 349.832031 129.359375 L 350.601562 134.761719 L 351.367188 140.273438 L 352.132812 145.882812 L 352.898438 151.578125 L 353.667969 157.351562 L 354.433594 163.195312 L 355.199219 169.09375 L 355.964844 175.035156 L 356.734375 181.015625 L 357.5 187.023438 L 358.265625 193.046875 L 359.035156 199.074219 L 359.800781 205.09375 L 360.566406 211.105469 L 361.332031 217.089844 L 362.101562 223.039062 L 362.867188 228.953125 L 363.632812 234.8125 L 364.398438 240.613281 L 365.167969 246.347656 L 365.933594 252.007812 L 366.699219 257.589844 L 367.464844 263.082031 L 368.234375 268.480469 L 369 273.777344 L 369.765625 278.96875 L 370.535156 284.050781 L 371.300781 289.015625 L 372.066406 293.863281 L 372.832031 298.589844 L 373.601562 303.1875 L 374.367188 307.652344 L 375.132812 311.992188 L 375.898438 316.195312 L 376.667969 320.261719 L 377.433594 324.195312 L 378.199219 327.992188 L 378.964844 331.652344 L 379.734375 335.175781 L 380.5 338.5625 L 381.265625 341.8125 L 382.035156 344.929688 L 382.800781 347.914062 L 383.566406 350.769531 L 384.332031 353.492188 L 385.101562 356.089844 L 385.867188 358.5625 L 386.632812 360.914062 L 387.398438 363.144531 L 388.167969 365.261719 L 388.933594 367.265625 L 389.699219 369.160156 L 390.464844 370.949219 L 391.234375 372.636719 L 392 374.226562 L 392.765625 375.71875 L 393.535156 377.121094 L 394.300781 378.433594 L 395.066406 379.664062 L 395.832031 380.816406 L 396.601562 381.886719 L 397.367188 382.886719 L 398.132812 383.820312 L 398.898438 384.683594 L 399.667969 385.488281 L 400.433594 386.230469 L 401.199219 386.921875 L 401.964844 387.554688 L 402.734375 388.144531 L 403.5 388.683594 L 404.265625 389.179688 L 405.035156 389.636719 L 405.800781 390.054688 L 406.566406 390.4375 L 407.332031 390.789062 L 408.101562 391.105469 L 408.867188 391.398438 L 409.632812 391.664062 L 410.398438 391.902344 L 411.167969 392.121094 L 411.933594 392.316406 L 412.699219 392.496094 L 413.464844 392.65625 L 414.234375 392.800781 L 415 392.933594 L 415.765625 393.050781 L 416.535156 393.152344 L 417.300781 393.25 L 418.066406 393.332031 L 418.832031 393.40625 L 419.601562 393.472656 L 420.367188 393.53125 L 421.132812 393.585938 L 421.898438 393.632812 L 422.667969 393.671875 L 423.433594 393.710938 L 424.199219 393.742188 L 424.964844 393.769531 L 425.734375 393.792969 L 426.5 393.816406 L 427.265625 393.835938 L 428.035156 393.851562 L 428.800781 393.867188 L 430.332031 393.890625 L 431.101562 393.898438 L 432.632812 393.914062 L 433.398438 393.917969 L 434.167969 393.925781 L 436.464844 393.9375 L 437.234375 393.941406 L 438 393.941406 L 438.765625 393.945312 L 440.300781 393.945312 L 441.066406 393.949219 L 443.367188 393.949219 L 444.132812 393.953125 L 530 393.953125 "/>
<path fill="none" stroke-width="1" stroke-linecap="butt" stroke-linejoin="miter" stroke="rgb(0%, 0%, 0%)" stroke-opacity="1" stroke-miterlimit="1.154701" d="M 70 411.5 L 70 416.5 "/>
<path fill="none" stroke-width="1" stroke-linecap="butt" stroke-linejoin="miter" stroke="rgb(0%, 0%, 0%)" stroke-opacity="1" stroke-miterlimit="1.154701" d="M 146.667969 411.5 L 146.667969 416.5 "/>
<path fill="none" stroke-width="1" stroke-linecap="butt" stroke-linejoin="miter" stroke="rgb(0%, 0%, 0%)" stroke-opacity="1" stroke-miterlimit="1.154701" d="M 223.332031 411.5 L 223.332031 416.5 "/>
<path fill="none" stroke-width="1" stroke-linecap="butt" stroke-linejoin="miter" stroke="rgb(0%, 0%, 0%)" stroke-opacity="1" stroke-miterlimit="1.154701" d="M 300 411.5 L 300 416.5 "/>
<path fill="none" stroke-width="1" stroke-linecap="butt" stroke-linejoin="miter" stroke="rgb(0%, 0%, 0%)" stroke-opacity="1" stroke-miterlimit="1.154701" d="M 376.667969 411.5 L 376.667969 416.5 "/>
<path fill="none" stroke-width="1" stroke-linecap="butt" stroke-linejoin="miter" stroke="rgb(0%, 0%, 0%)" stroke-opacity="1" stroke-miterlimit="1.154701" d="M 453.332031 411.5 L 453.332031 416.5 "/>
<path fill="none" stroke-width="1" stroke-linecap="butt" stroke-linejoin="miter" stroke="rgb(0%, 0%, 0%)" stroke-opacity="1" stroke-miterlimit="1.154701" d="M 530 411.5 L 530 416.5 "/>
<path fill="none" stroke-width="1" stroke-linecap="butt" stroke-linejoin="miter" stroke="rgb(0%, 0%, 0%)" stroke-opacity="1" stroke-miterlimit="1.154701" d="M 46.5 393.953125 L 41.5 393.953125 "/>
<path fill="none" stroke-width="1" stroke-linecap="butt" stroke-linejoin="miter" stroke="rgb(0%, 0%, 0%)" stroke-opacity="1" stroke-miterlimit="1.154701" d="M 46.5 242.734375 L 41.5 242.734375 "/>
<path fill="none" stroke-width="1" stroke-linecap="butt" stroke-linejoin="miter" stroke="rgb(0%, 0%, 0%)" stroke-opacity="1" stroke-miterlimit="1.154701" d="M 46.5 91.511719 L 41.5 91.511719 "/>
<path fill="none" stroke-width="1" stroke-linecap="butt" stroke-linejoin="miter" stroke="rgb(0%, 0%, 0%)" stroke-opacity="1" stroke-miterlimit="1.154701" d="M 553.5 393.953125 L 558.5 393.953125 "/>
<path fill="none" stroke-width="1" stroke-linecap="butt" stroke-linejoin="miter" stroke="rgb(0%, 0%, 0%)" stroke-opacity="1" stroke-miterlimit="1.154701" d="M 553.5 223.5 L 558.5 223.5 "/>
<path fill="none" stroke-width="1" stroke-linecap="butt" stroke-linejoin="miter" stroke="rgb(0%, 0%, 0%)" stroke-opacity="1" stroke-miterlimit="1.154701" d="M 553.5 53.046875 L 558.5 53.046875 "/>
<path fill="none" stroke-width="1" stroke-linecap="butt" stroke-linejoin="miter" stroke="rgb(0%, 0%, 0%)" stroke-opacity="1" stroke-miterlimit="1.154701" d="M 46.5 411 L 553.5 411 "/>
<path fill="none" stroke-width="1" stroke-linecap="butt" stroke-linejoin="miter" stroke="rgb(0%, 0%, 0%)" stroke-opacity="1" stroke-miterlimit="1.154701" d="M 47 411.5 L 47 35.5 "/>
<path fill="none" stroke-width="1" stroke-linecap="butt" stroke-linejoin="miter" stroke="rgb(0%, 0%, 0%)" stroke-opacity="1" stroke-miterlimit="1.154701" d="M 46.5 36 L 553.5 36 "/>
<path fill="none" stroke-width="1" stroke-linecap="butt" stroke-linejoin="miter" stroke="rgb(0%, 0%, 0%)" stroke-opacity="1" stroke-miterlimit="1.154701" d="M 553 411.5 L 553 35.5 "/>
</svg>
