<?xml version="1.0" encoding="UTF-8"?>
<svg xmlns="http://www.w3.org/2000/svg" xmlns:xlink="http://www.w3.org/1999/xlink" width="600" height="450" viewBox="0 0 600 450">
<defs>
<g>
<g id="glyph-0-0-0c9b23ed">
<path d="M 7.21875 -3.03125 C 7.21875 -3.03125 0.953125 -3.03125 0.953125 -3.03125 C 0.953125 -3.03125 0.953125 -3.96875 0.953125 -3.96875 C 0.953125 -3.96875 7.21875 -3.96875 7.21875 -3.96875 C 7.21875 -3.96875 7.21875 -3.03125 7.21875 -3.03125 Z M 7.21875 -3.03125 "/>
</g>
<g id="glyph-0-1-0c9b23ed">
<path d="M 7.15625 -7.015625 C 7.15625 -5.796875 6.4375 -4.765625 5.046875 -4.015625 C 5.046875 -4.015625 3.65625 -3.265625 3.65625 -3.265625 C 2.4375 -2.546875 1.984375 -2.03125 1.859375 -1.21875 C 1.859375 -1.21875 7.078125 -1.21875 7.078125 -1.21875 C 7.078125 -1.21875 7.078125 0 7.078125 0 C 7.078125 0 0.46875 0 0.46875 0 C 0.59375 -2.1875 1.1875 -3.125 3.265625 -4.296875 C 3.265625 -4.296875 4.546875 -5.03125 4.546875 -5.03125 C 5.4375 -5.53125 5.890625 -6.203125 5.890625 -6.984375 C 5.890625 -8.046875 5.046875 -8.84375 3.9375 -8.84375 C 2.71875 -8.84375 2.03125 -8.140625 1.9375 -6.484375 C 1.9375 -6.484375 0.703125 -6.484375 0.703125 -6.484375 C 0.765625 -8.890625 1.953125 -9.921875 3.96875 -9.921875 C 5.859375 -9.921875 7.15625 -8.6875 7.15625 -7.015625 Z M 7.15625 -7.015625 "/>
</g>
<g id="glyph-0-2-0c9b23ed">
<path d="M 7.09375 -4.78125 C 7.09375 -1.515625 5.953125 0.203125 3.84375 0.203125 C 1.71875 0.203125 0.609375 -1.515625 0.609375 -4.859375 C 0.609375 -8.1875 1.703125 -9.921875 3.84375 -9.921875 C 6 -9.921875 7.09375 -8.21875 7.09375 -4.78125 Z M 5.84375 -4.890625 C 5.84375 -7.546875 5.1875 -8.828125 3.84375 -8.828125 C 2.515625 -8.828125 1.859375 -7.5625 1.859375 -4.84375 C 1.859375 -2.125 2.515625 -0.8125 3.828125 -0.8125 C 5.1875 -0.8125 5.84375 -2.078125 5.84375 -4.890625 Z M 5.84375 -4.890625 "/>
</g>
<g id="glyph-0-3-0c9b23ed">
<path d="M 4.859375 0 C 4.859375 0 3.625 0 3.625 0 C 3.625 0 3.625 -7.0625 3.625 -7.0625 C 3.625 -7.0625 1.421875 -7.0625 1.421875 -7.0625 C 1.421875 -7.0625 1.421875 -7.953125 1.421875 -7.953125 C 3.328125 -8.1875 3.609375 -8.40625 4.046875 -9.921875 C 4.046875 -9.921875 4.859375 -9.921875 4.859375 -9.921875 C 4.859375 -9.921875 4.859375 0 4.859375 0 Z M 4.859375 0 "/>
</g>
<g id="glyph-0-4-0c9b23ed">
<path d="M 7.28125 -2.375 C 7.28125 -2.375 5.8125 -2.375 5.8125 -2.375 C 5.8125 -2.375 5.8125 0 5.8125 0 C 5.8125 0 4.578125 0 4.578125 0 C 4.578125 0 4.578125 -2.375 4.578125 -2.375 C 4.578125 -2.375 0.390625 -2.375 0.390625 -2.375 C 0.390625 -2.375 0.390625 -3.6875 0.390625 -3.6875 C 0.390625 -3.6875 4.90625 -9.921875 4.90625 -9.921875 C 4.90625 -9.921875 5.8125 -9.921875 5.8125 -9.921875 C 5.8125 -9.921875 5.8125 -3.484375 5.8125 -3.484375 C 5.8125 -3.484375 7.28125 -3.484375 7.28125 -3.484375 C 7.28125 -3.484375 7.28125 -2.375 7.28125 -2.375 Z M 4.578125 -3.484375 C 4.578125 -3.484375 4.578125 -7.828125 4.578125 -7.828125 C 4.578125 -7.828125 1.46875 -3.484375 1.46875 -3.484375 C 1.46875 -3.484375 4.578125 -3.484375 4.578125 -3.484375 Z M 4.578125 -3.484375 "/>
</g>
<g id="glyph-0-5-0c9b23ed">
<path d="M 2.671875 0 C 2.671875 0 1.21875 0 1.21875 0 C 1.21875 0 1.21875 -1.453125 1.21875 -1.453125 C 1.21875 -1.453125 2.671875 -1.453125 2.671875 -1.453125 C 2.671875 -1.453125 2.671875 0 2.671875 0 Z M 2.671875 0 "/>
</g>
<g id="glyph-0-6-0c9b23ed">
<path d="M 6.640625 -1.625 C 6.640625 -1.625 5.96875 -0.953125 5.96875 -0.953125 C 5.96875 -0.953125 4.09375 -2.828125 4.09375 -2.828125 C 4.09375 -2.828125 2.21875 -0.953125 2.21875 -0.953125 C 2.21875 -0.953125 1.546875 -1.625 1.546875 -1.625 C 1.546875 -1.625 3.421875 -3.5 3.421875 -3.5 C 3.421875 -3.5 1.546875 -5.375 1.546875 -5.375 C 1.546875 -5.375 2.21875 -6.046875 2.21875 -6.046875 C 2.21875 -6.046875 4.09375 -4.171875 4.09375 -4.171875 C 4.09375 -4.171875 5.96875 -6.046875 5.96875 -6.046875 C 5.96875 -6.046875 6.640625 -5.375 6.640625 -5.375 C 6.640625 -5.375 4.765625 -3.5 4.765625 -3.5 C 4.765625 -3.5 6.640625 -1.625 6.640625 -1.625 Z M 6.640625 -1.625 "/>
</g>
<g id="glyph-0-7-0c9b23ed">
<path d="M 7.078125 -2.890625 C 7.078125 -1.015625 5.765625 0.203125 3.71875 0.203125 C 1.6875 0.203125 0.609375 -0.78125 0.453125 -3 C 0.453125 -3 1.6875 -3 1.6875 -3 C 1.765625 -1.546875 2.421875 -0.875 3.765625 -0.875 C 5.046875 -0.875 5.828125 -1.625 5.828125 -2.875 C 5.828125 -3.96875 5.125 -4.625 3.765625 -4.625 C 3.765625 -4.625 3.09375 -4.625 3.09375 -4.625 C 3.09375 -4.625 3.09375 -5.65625 3.09375 -5.65625 C 5.0625 -5.65625 5.53125 -6.09375 5.53125 -7.15625 C 5.53125 -8.203125 4.875 -8.84375 3.78125 -8.84375 C 2.515625 -8.84375 1.921875 -8.1875 1.890625 -6.71875 C 1.890625 -6.71875 0.65625 -6.71875 0.65625 -6.71875 C 0.703125 -8.828125 1.765625 -9.921875 3.765625 -9.921875 C 5.65625 -9.921875 6.796875 -8.90625 6.796875 -7.203125 C 6.796875 -6.203125 6.328125 -5.5625 5.40625 -5.1875 C 6.59375 -4.78125 7.078125 -4.09375 7.078125 -2.890625 Z M 7.078125 -2.890625 "/>
</g>
<g id="glyph-0-8-0c9b23ed">
<path d="M 7.1875 -3.296875 C 7.1875 -1.1875 5.78125 0.203125 3.78125 0.203125 C 2.015625 0.203125 0.890625 -0.578125 0.484375 -2.546875 C 0.484375 -2.546875 1.71875 -2.546875 1.71875 -2.546875 C 2.015625 -1.421875 2.671875 -0.875 3.75 -0.875 C 5.09375 -0.875 5.921875 -1.6875 5.921875 -3.125 C 5.921875 -4.59375 5.078125 -5.453125 3.75 -5.453125 C 2.984375 -5.453125 2.5 -5.203125 1.9375 -4.515625 C 1.9375 -4.515625 0.796875 -4.515625 0.796875 -4.515625 C 0.796875 -4.515625 1.546875 -9.71875 1.546875 -9.71875 C 1.546875 -9.71875 6.65625 -9.71875 6.65625 -9.71875 C 6.65625 -9.71875 6.65625 -8.5 6.65625 -8.5 C 6.65625 -8.5 2.53125 -8.5 2.53125 -8.5 C 2.53125 -8.5 2.140625 -5.9375 2.140625 -5.9375 C 2.71875 -6.359375 3.28125 -6.53125 3.96875 -6.53125 C 5.875 -6.53125 7.1875 -5.25 7.1875 -3.296875 Z M 7.1875 -3.296875 "/>
</g>
<g id="glyph-0-9-0c9b23ed">
<path d="M 7.1875 -3.078125 C 7.1875 -1.140625 5.828125 0.203125 3.9375 0.203125 C 1.671875 0.203125 0.609375 -1.421875 0.609375 -4.515625 C 0.609375 -7.984375 1.84375 -9.921875 4.15625 -9.921875 C 5.671875 -9.921875 6.734375 -8.953125 6.96875 -7.34375 C 6.96875 -7.34375 5.734375 -7.34375 5.734375 -7.34375 C 5.546875 -8.28125 4.9375 -8.828125 4.078125 -8.828125 C 2.65625 -8.828125 1.875 -7.484375 1.859375 -5.0625 C 2.390625 -5.796875 3.15625 -6.171875 4.140625 -6.171875 C 5.921875 -6.171875 7.1875 -4.921875 7.1875 -3.078125 Z M 5.921875 -2.984375 C 5.921875 -4.3125 5.1875 -5.078125 3.984375 -5.078125 C 2.765625 -5.078125 1.9375 -4.28125 1.9375 -3.046875 C 1.9375 -1.78125 2.796875 -0.875 3.953125 -0.875 C 5.078125 -0.875 5.921875 -1.734375 5.921875 -2.984375 Z M 5.921875 -2.984375 "/>
</g>
<g id="glyph-0-10-0c9b23ed">
<path d="M 8.6875 -2.796875 C 8.6875 -0.984375 7.296875 0.25 4.703125 0.25 C 2.296875 0.25 0.671875 -0.90625 0.671875 -3.3125 C 0.671875 -3.3125 1.90625 -3.3125 1.90625 -3.3125 C 1.90625 -1.859375 2.859375 -0.890625 4.78125 -0.890625 C 6.546875 -0.890625 7.390625 -1.546875 7.390625 -2.671875 C 7.390625 -3.46875 6.796875 -3.984375 5.515625 -4.328125 C 5.515625 -4.328125 2.984375 -5 2.984375 -5 C 1.640625 -5.34375 0.984375 -6.125 0.984375 -7.375 C 0.984375 -9.21875 2.359375 -10.453125 4.609375 -10.453125 C 6.953125 -10.453125 8.34375 -9.296875 8.34375 -7.296875 C 8.34375 -7.296875 7.109375 -7.296875 7.109375 -7.296875 C 7.109375 -8.625 6.1875 -9.359375 4.5625 -9.359375 C 3.1875 -9.359375 2.28125 -8.59375 2.28125 -7.5625 C 2.28125 -6.78125 2.734375 -6.375 3.96875 -6.046875 C 3.96875 -6.046875 6.53125 -5.359375 6.53125 -5.359375 C 7.90625 -4.984375 8.6875 -4.0625 8.6875 -2.796875 Z M 8.6875 -2.796875 "/>
</g>
<g id="glyph-0-11-0c9b23ed">
<path d="M 7.484375 -0.03125 C 7.109375 0.0625 6.9375 0.09375 6.6875 0.09375 C 6.125 0.09375 5.609375 -0.3125 5.484375 -0.875 C 4.84375 -0.1875 3.9375 0.203125 3 0.203125 C 1.515625 0.203125 0.59375 -0.578125 0.59375 -1.90625 C 0.59375 -2.796875 1.015625 -3.453125 1.875 -3.8125 C 2.328125 -3.984375 2.578125 -4.046875 4.234375 -4.25 C 5.15625 -4.375 5.453125 -4.578125 5.453125 -5.0625 C 5.453125 -5.0625 5.453125 -5.375 5.453125 -5.375 C 5.453125 -6.078125 4.859375 -6.46875 3.8125 -6.46875 C 2.71875 -6.46875 2.1875 -6.0625 2.09375 -5.171875 C 2.09375 -5.171875 0.90625 -5.171875 0.90625 -5.171875 C 0.984375 -6.859375 2.078125 -7.546875 3.84375 -7.546875 C 5.65625 -7.546875 6.609375 -6.84375 6.609375 -5.546875 C 6.609375 -5.546875 6.609375 -1.453125 6.609375 -1.453125 C 6.609375 -1.09375 6.828125 -0.875 7.234375 -0.875 C 7.3125 -0.875 7.359375 -0.875 7.484375 -0.90625 C 7.484375 -0.90625 7.484375 -0.03125 7.484375 -0.03125 Z M 5.453125 -2.53125 C 5.453125 -2.53125 5.453125 -3.625 5.453125 -3.625 C 5.046875 -3.4375 4.796875 -3.390625 3.5625 -3.21875 C 2.328125 -3.03125 1.8125 -2.703125 1.8125 -1.9375 C 1.8125 -1.140625 2.34375 -0.8125 3.25 -0.8125 C 4.375 -0.8125 5.453125 -1.484375 5.453125 -2.53125 Z M 5.453125 -2.53125 "/>
</g>
<g id="glyph-0-12-0c9b23ed">
<path d="M 10.640625 0 C 10.640625 0 9.484375 0 9.484375 0 C 9.484375 0 9.484375 -5.046875 9.484375 -5.046875 C 9.484375 -5.984375 8.984375 -6.53125 8.140625 -6.53125 C 7.1875 -6.53125 6.390625 -5.671875 6.390625 -4.609375 C 6.390625 -4.609375 6.390625 0 6.390625 0 C 6.390625 0 5.234375 0 5.234375 0 C 5.234375 0 5.234375 -5.046875 5.234375 -5.046875 C 5.234375 -5.984375 4.75 -6.53125 3.875 -6.53125 C 2.921875 -6.53125 2.15625 -5.671875 2.15625 -4.609375 C 2.15625 -4.609375 2.15625 0 2.15625 0 C 2.15625 0 1 0 1 0 C 1 0 1 -7.34375 1 -7.34375 C 1 -7.34375 2.0625 -7.34375 2.0625 -7.34375 C 2.0625 -7.34375 2.0625 -6.296875 2.0625 -6.296875 C 2.6875 -7.1875 3.328125 -7.546875 4.3125 -7.546875 C 5.265625 -7.546875 5.859375 -7.203125 6.28125 -6.421875 C 6.96875 -7.25 7.5625 -7.546875 8.546875 -7.546875 C 9.90625 -7.546875 10.640625 -6.8125 10.640625 -5.5 C 10.640625 -5.5 10.640625 0 10.640625 0 Z M 10.640625 0 "/>
</g>
<g id="glyph-0-13-0c9b23ed">
<path d="M 7.328125 -3.59375 C 7.328125 -1.265625 6.078125 0.203125 4.1875 0.203125 C 3.234375 0.203125 2.546875 -0.125 1.9375 -0.875 C 1.9375 -0.875 1.9375 3.046875 1.9375 3.046875 C 1.9375 3.046875 0.765625 3.046875 0.765625 3.046875 C 0.765625 3.046875 0.765625 -7.34375 0.765625 -7.34375 C 0.765625 -7.34375 1.828125 -7.34375 1.828125 -7.34375 C 1.828125 -7.34375 1.828125 -6.234375 1.828125 -6.234375 C 2.375 -7.09375 3.171875 -7.546875 4.171875 -7.546875 C 6.125 -7.546875 7.328125 -6.0625 7.328125 -3.59375 Z M 6.109375 -3.625 C 6.109375 -5.375 5.265625 -6.453125 3.96875 -6.453125 C 2.75 -6.453125 1.9375 -5.328125 1.9375 -3.609375 C 1.9375 -1.890625 2.75 -0.875 3.96875 -0.875 C 5.25 -0.875 6.109375 -1.953125 6.109375 -3.625 Z M 6.109375 -3.625 "/>
</g>
<g id="glyph-0-14-0c9b23ed">
<path d="M 2.109375 0 C 2.109375 0 0.953125 0 0.953125 0 C 0.953125 0 0.953125 -10.203125 0.953125 -10.203125 C 0.953125 -10.203125 2.109375 -10.203125 2.109375 -10.203125 C 2.109375 -10.203125 2.109375 0 2.109375 0 Z M 2.109375 0 "/>
</g>
<g id="glyph-0-15-0c9b23ed">
<path d="M 7.1875 -3.328125 C 7.1875 -3.328125 1.78125 -3.328125 1.78125 -3.328125 C 1.8125 -1.65625 2.71875 -0.875 3.9375 -0.875 C 4.875 -0.875 5.53125 -1.265625 5.859375 -2.21875 C 5.859375 -2.21875 7.03125 -2.21875 7.03125 -2.21875 C 6.734375 -0.734375 5.578125 0.203125 3.890625 0.203125 C 1.828125 0.203125 0.5625 -1.21875 0.5625 -3.625 C 0.5625 -6.03125 1.875 -7.546875 3.921875 -7.546875 C 5.296875 -7.546875 6.40625 -6.8125 6.890625 -5.609375 C 7.09375 -5.0625 7.1875 -4.390625 7.1875 -3.328125 Z M 5.9375 -4.375 C 5.9375 -5.515625 5.046875 -6.46875 3.90625 -6.46875 C 2.734375 -6.46875 1.90625 -5.59375 1.8125 -4.28125 C 1.8125 -4.28125 5.921875 -4.28125 5.921875 -4.28125 C 5.9375 -4.3125 5.9375 -4.375 5.9375 -4.375 Z M 5.9375 -4.375 "/>
</g>
<g id="glyph-0-16-0c9b23ed">
<path d="M 6.421875 -2.0625 C 6.421875 -0.640625 5.25 0.203125 3.40625 0.203125 C 1.484375 0.203125 0.53125 -0.546875 0.46875 -2.234375 C 0.46875 -2.234375 1.703125 -2.234375 1.703125 -2.234375 C 1.859375 -1.125 2.453125 -0.875 3.5 -0.875 C 4.515625 -0.875 5.203125 -1.28125 5.203125 -1.953125 C 5.203125 -2.484375 4.890625 -2.734375 4.078125 -2.921875 C 4.078125 -2.921875 2.984375 -3.1875 2.984375 -3.1875 C 1.25 -3.609375 0.65625 -4.15625 0.65625 -5.3125 C 0.65625 -6.65625 1.765625 -7.546875 3.46875 -7.546875 C 5.171875 -7.546875 6.125 -6.734375 6.125 -5.296875 C 6.125 -5.296875 4.90625 -5.296875 4.90625 -5.296875 C 4.875 -6.0625 4.375 -6.46875 3.4375 -6.46875 C 2.484375 -6.46875 1.875 -6.03125 1.875 -5.359375 C 1.875 -4.84375 2.28125 -4.53125 3.234375 -4.3125 C 3.234375 -4.3125 4.359375 -4.046875 4.359375 -4.046875 C 5.8125 -3.703125 6.421875 -3.15625 6.421875 -2.0625 Z M 6.421875 -2.0625 "/>
</g>
<g id="glyph-0-17-0c9b23ed">
<path d="M 9.03125 -3.109375 C 9.03125 -1.0625 7.484375 0.25 5.09375 0.25 C 2.671875 0.25 1.1875 -1.03125 1.1875 -3.109375 C 1.1875 -3.109375 1.1875 -10.203125 1.1875 -10.203125 C 1.1875 -10.203125 2.484375 -10.203125 2.484375 -10.203125 C 2.484375 -10.203125 2.484375 -3.109375 2.484375 -3.109375 C 2.484375 -1.625 3.5625 -0.890625 5.09375 -0.890625 C 6.734375 -0.890625 7.734375 -1.734375 7.734375 -3.109375 C 7.734375 -3.109375 7.734375 -10.203125 7.734375 -10.203125 C 7.734375 -10.203125 9.03125 -10.203125 9.03125 -10.203125 C 9.03125 -10.203125 9.03125 -3.109375 9.03125 -3.109375 Z M 9.03125 -3.109375 "/>
</g>
<g id="glyph-0-18-0c9b23ed">
<path d="M 4.5 -6.3125 C 2.6875 -6.28125 2.140625 -5.453125 2.140625 -3.8125 C 2.140625 -3.8125 2.140625 0 2.140625 0 C 2.140625 0 0.984375 0 0.984375 0 C 0.984375 0 0.984375 -7.34375 0.984375 -7.34375 C 0.984375 -7.34375 2.046875 -7.34375 2.046875 -7.34375 C 2.046875 -7.34375 2.046875 -6 2.046875 -6 C 2.71875 -7.09375 3.296875 -7.546875 4.046875 -7.546875 C 4.203125 -7.546875 4.296875 -7.53125 4.5 -7.5 C 4.5 -7.5 4.5 -6.3125 4.5 -6.3125 Z M 4.5 -6.3125 "/>
</g>
<g id="glyph-0-19-0c9b23ed">
</g>
<g id="glyph-0-20-0c9b23ed">
<path d="M 6.796875 0 C 6.796875 0 5.640625 0 5.640625 0 C 5.640625 0 5.640625 -5.078125 5.640625 -5.078125 C 5.640625 -6.046875 4.953125 -6.53125 4.125 -6.53125 C 2.921875 -6.53125 2.140625 -5.546875 2.140625 -4.046875 C 2.140625 -4.046875 2.140625 0 2.140625 0 C 2.140625 0 0.984375 0 0.984375 0 C 0.984375 0 0.984375 -10.203125 0.984375 -10.203125 C 0.984375 -10.203125 2.140625 -10.203125 2.140625 -10.203125 C 2.140625 -10.203125 2.140625 -6.328125 2.140625 -6.328125 C 2.828125 -7.21875 3.453125 -7.546875 4.5 -7.546875 C 5.921875 -7.546875 6.796875 -6.78125 6.796875 -5.546875 C 6.796875 -5.546875 6.796875 0 6.796875 0 Z M 6.796875 0 "/>
</g>
<g id="glyph-0-21-0c9b23ed">
<path d="M 6.75 0 C 6.75 0 5.703125 0 5.703125 0 C 5.703125 0 5.703125 -1.140625 5.703125 -1.140625 C 5.015625 -0.171875 4.328125 0.203125 3.25 0.203125 C 1.8125 0.203125 0.90625 -0.578125 0.90625 -1.796875 C 0.90625 -1.796875 0.90625 -7.34375 0.90625 -7.34375 C 0.90625 -7.34375 2.078125 -7.34375 2.078125 -7.34375 C 2.078125 -7.34375 2.078125 -2.25 2.078125 -2.25 C 2.078125 -1.375 2.65625 -0.8125 3.578125 -0.8125 C 4.796875 -0.8125 5.59375 -1.796875 5.59375 -3.296875 C 5.59375 -3.296875 5.59375 -7.34375 5.59375 -7.34375 C 5.59375 -7.34375 6.75 -7.34375 6.75 -7.34375 C 6.75 -7.34375 6.75 0 6.75 0 Z M 6.75 0 "/>
</g>
<g id="glyph-0-22-0c9b23ed">
<path d="M 8.296875 -9.0625 C 8.296875 -9.0625 4.953125 -9.0625 4.953125 -9.0625 C 4.953125 -9.0625 4.953125 0 4.953125 0 C 4.953125 0 3.65625 0 3.65625 0 C 3.65625 0 3.65625 -9.0625 3.65625 -9.0625 C 3.65625 -9.0625 0.296875 -9.0625 0.296875 -9.0625 C 0.296875 -9.0625 0.296875 -10.203125 0.296875 -10.203125 C 0.296875 -10.203125 8.296875 -10.203125 8.296875 -10.203125 C 8.296875 -10.203125 8.296875 -9.0625 8.296875 -9.0625 Z M 8.296875 -9.0625 "/>
</g>
<g id="glyph-0-23-0c9b23ed">
<path d="M 6.84375 -1.203125 C 6.84375 2.03125 5.859375 3.046875 3.5625 3.046875 C 1.84375 3.046875 0.765625 2.21875 0.640625 0.84375 C 0.640625 0.84375 1.828125 0.84375 1.828125 0.84375 C 1.96875 1.734375 2.6875 2.078125 3.609375 2.078125 C 4.96875 2.078125 5.765625 1.328125 5.765625 -0.609375 C 5.765625 -0.609375 5.765625 -1.109375 5.765625 -1.109375 C 5 -0.1875 4.359375 0.203125 3.4375 0.203125 C 1.703125 0.203125 0.40625 -1.28125 0.40625 -3.59375 C 0.40625 -5.984375 1.671875 -7.546875 3.53125 -7.546875 C 4.46875 -7.546875 5.1875 -7.140625 5.765625 -6.265625 C 5.765625 -6.265625 5.765625 -7.34375 5.765625 -7.34375 C 5.765625 -7.34375 6.84375 -7.34375 6.84375 -7.34375 C 6.84375 -7.34375 6.84375 -1.203125 6.84375 -1.203125 Z M 5.65625 -3.625 C 5.65625 -5.40625 4.90625 -6.46875 3.65625 -6.46875 C 2.40625 -6.46875 1.625 -5.4375 1.625 -3.671875 C 1.625 -1.890625 2.390625 -0.875 3.671875 -0.875 C 4.90625 -0.875 5.65625 -1.875 5.65625 -3.625 Z M 5.65625 -3.625 "/>
</g>
<g id="glyph-0-24-0c9b23ed">
<path d="M 3.5625 0 C 3.15625 0.0625 2.890625 0.09375 2.609375 0.09375 C 1.6875 0.09375 1.1875 -0.328125 1.1875 -1.0625 C 1.1875 -1.0625 1.1875 -6.390625 1.1875 -6.390625 C 1.1875 -6.390625 0.203125 -6.390625 0.203125 -6.390625 C 0.203125 -6.390625 0.203125 -7.34375 0.203125 -7.34375 C 0.203125 -7.34375 1.1875 -7.34375 1.1875 -7.34375 C 1.1875 -7.34375 1.1875 -9.359375 1.1875 -9.359375 C 1.1875 -9.359375 2.359375 -9.359375 2.359375 -9.359375 C 2.359375 -9.359375 2.359375 -7.34375 2.359375 -7.34375 C 2.359375 -7.34375 3.5625 -7.34375 3.5625 -7.34375 C 3.5625 -7.34375 3.5625 -6.390625 3.5625 -6.390625 C 3.5625 -6.390625 2.359375 -6.390625 2.359375 -6.390625 C 2.359375 -6.390625 2.359375 -1.578125 2.359375 -1.578125 C 2.359375 -1.0625 2.484375 -0.921875 3 -0.921875 C 3.21875 -0.921875 3.40625 -0.9375 3.5625 -0.984375 C 3.5625 -0.984375 3.5625 0 3.5625 0 Z M 3.5625 0 "/>
</g>
<g id="glyph-0-25-0c9b23ed">
<path d="M 9.140625 0 C 9.140625 0 7.6875 0 7.6875 0 C 7.6875 0 6.640625 -3.0625 6.640625 -3.0625 C 6.640625 -3.0625 2.703125 -3.0625 2.703125 -3.0625 C 2.703125 -3.0625 1.625 0 1.625 0 C 1.625 0 0.234375 0 0.234375 0 C 0.234375 0 3.875 -10.203125 3.875 -10.203125 C 3.875 -10.203125 5.5625 -10.203125 5.5625 -10.203125 C 5.5625 -10.203125 9.140625 0 9.140625 0 Z M 6.265625 -4.15625 C 6.265625 -4.15625 4.703125 -8.8125 4.703125 -8.8125 C 4.703125 -8.8125 3.03125 -4.15625 3.03125 -4.15625 C 3.03125 -4.15625 6.265625 -4.15625 6.265625 -4.15625 Z M 6.265625 -4.15625 "/>
</g>
<g id="glyph-0-26-0c9b23ed">
<path d="M 7.328125 -3.75 C 7.328125 -1.375 6.0625 0.203125 4.125 0.203125 C 3.109375 0.203125 2.359375 -0.203125 1.8125 -1.046875 C 1.8125 -1.046875 1.8125 0 1.8125 0 C 1.8125 0 0.75 0 0.75 0 C 0.75 0 0.75 -10.203125 0.75 -10.203125 C 0.75 -10.203125 1.921875 -10.203125 1.921875 -10.203125 C 1.921875 -10.203125 1.921875 -6.34375 1.921875 -6.34375 C 2.46875 -7.171875 3.171875 -7.546875 4.1875 -7.546875 C 6.125 -7.546875 7.328125 -6.125 7.328125 -3.75 Z M 6.109375 -3.6875 C 6.109375 -5.3125 5.265625 -6.453125 3.96875 -6.453125 C 2.734375 -6.515625 1.921875 -5.390625 1.921875 -3.671875 C 1.921875 -2 2.734375 -0.875 3.96875 -0.875 C 5.234375 -0.875 6.109375 -2.015625 6.109375 -3.6875 Z M 6.109375 -3.6875 "/>
</g>
<g id="glyph-0-27-0c9b23ed">
<path d="M 6.671875 -2.515625 C 6.53125 -0.84375 5.4375 0.203125 3.6875 0.203125 C 1.6875 0.203125 0.4375 -1.234375 0.4375 -3.59375 C 0.4375 -6.03125 1.71875 -7.546875 3.703125 -7.546875 C 5.328125 -7.546875 6.453125 -6.65625 6.59375 -4.875 C 6.59375 -4.875 5.421875 -4.875 5.421875 -4.875 C 5.28125 -5.890625 4.65625 -6.46875 3.6875 -6.46875 C 2.40625 -6.46875 1.65625 -5.4375 1.65625 -3.59375 C 1.65625 -1.859375 2.421875 -0.875 3.703125 -0.875 C 4.703125 -0.875 5.3125 -1.34375 5.5 -2.515625 C 5.5 -2.515625 6.671875 -2.515625 6.671875 -2.515625 Z M 6.671875 -2.515625 "/>
</g>
<g id="glyph-0-28-0c9b23ed">
<path d="M 2.140625 0 C 2.140625 0 0.984375 0 0.984375 0 C 0.984375 0 0.984375 -7.34375 0.984375 -7.34375 C 0.984375 -7.34375 2.140625 -7.34375 2.140625 -7.34375 C 2.140625 -7.34375 2.140625 0 2.140625 0 Z M 2.296875 -8.4375 C 2.296875 -8.4375 0.84375 -8.4375 0.84375 -8.4375 C 0.84375 -8.4375 0.84375 -9.890625 0.84375 -9.890625 C 0.84375 -9.890625 2.296875 -9.890625 2.296875 -9.890625 C 2.296875 -9.890625 2.296875 -8.4375 2.296875 -8.4375 Z M 2.296875 -8.4375 "/>
</g>
<g id="glyph-1-0-0c9b23ed">
<path d="M 7.09375 -4.78125 C 7.09375 -1.515625 5.953125 0.203125 3.84375 0.203125 C 1.71875 0.203125 0.609375 -1.515625 0.609375 -4.859375 C 0.609375 -8.1875 1.703125 -9.921875 3.84375 -9.921875 C 6 -9.921875 7.09375 -8.21875 7.09375 -4.78125 Z M 5.84375 -4.890625 C 5.84375 -7.546875 5.1875 -8.828125 3.84375 -8.828125 C 2.515625 -8.828125 1.859375 -7.5625 1.859375 -4.84375 C 1.859375 -2.125 2.515625 -0.8125 3.828125 -0.8125 C 5.1875 -0.8125 5.84375 -2.078125 5.84375 -4.890625 Z M 5.84375 -4.890625 "/>
</g>
<g id="glyph-2-0-0c9b23ed">
<path d="M 7.09375 -4.78125 C 7.09375 -1.515625 5.953125 0.203125 3.84375 0.203125 C 1.71875 0.203125 0.609375 -1.515625 0.609375 -4.859375 C 0.609375 -8.1875 1.703125 -9.921875 3.84375 -9.921875 C 6 -9.921875 7.09375 -8.21875 7.09375 -4.78125 Z M 5.84375 -4.890625 C 5.84375 -7.546875 5.1875 -8.828125 3.84375 -8.828125 C 2.515625 -8.828125 1.859375 -7.5625 1.859375 -4.84375 C 1.859375 -2.125 2.515625 -0.8125 3.828125 -0.8125 C 5.1875 -0.8125 5.84375 -2.078125 5.84375 -4.890625 Z M 5.84375 -4.890625 "/>
</g>
<g id="glyph-3-0-0c9b23ed">
<path d="M 3.265625 -9.453125 L 1.15625 -6.578125 L 3.265625 -6.578125 Z M 3.109375 -10.28125 L 4.25 -10.28125 L 4.25 -6.578125 L 5.171875 -6.578125 L 5.171875 -5.84375 L 4.25 -5.84375 L 4.25 -4.5625 L 3.265625 -4.5625 L 3.265625 -5.84375 L 0.4375 -5.84375 L 0.4375 -6.671875 Z M 3.109375 -10.28125 "/>
</g>
<g id="glyph-4-0-0c9b23ed">
<path d="M 7.09375 -4.78125 C 7.09375 -1.515625 5.953125 0.203125 3.84375 0.203125 C 1.71875 0.203125 0.609375 -1.515625 0.609375 -4.859375 C 0.609375 -8.1875 1.703125 -9.921875 3.84375 -9.921875 C 6 -9.921875 7.09375 -8.21875 7.09375 -4.78125 Z M 5.84375 -4.890625 C 5.84375 -7.546875 5.1875 -8.828125 3.84375 -8.828125 C 2.515625 -8.828125 1.859375 -7.5625 1.859375 -4.84375 C 1.859375 -2.125 2.515625 -0.8125 3.828125 -0.8125 C 5.1875 -0.8125 5.84375 -2.078125 5.84375 -4.890625 Z M 5.84375 -4.890625 "/>
</g>
<g id="glyph-4-1-0c9b23ed">
<path d="M 2.671875 0 C 2.671875 0 1.21875 0 1.21875 0 C 1.21875 0 1.21875 -1.453125 1.21875 -1.453125 C 1.21875 -1.453125 2.671875 -1.453125 2.671875 -1.453125 C 2.671875 -1.453125 2.671875 0 2.671875 0 Z M 2.671875 0 "/>
</g>
<g id="glyph-4-2-0c9b23ed">
<path d="M 7.1875 -2.796875 C 7.1875 -1 5.8125 0.203125 3.84375 0.203125 C 1.890625 0.203125 0.515625 -1 0.515625 -2.8125 C 0.515625 -3.90625 1.078125 -4.671875 2.21875 -5.21875 C 1.203125 -5.859375 0.875 -6.359375 0.875 -7.28125 C 0.875 -8.828125 2.09375 -9.921875 3.84375 -9.921875 C 5.609375 -9.921875 6.828125 -8.828125 6.828125 -7.28125 C 6.828125 -6.34375 6.5 -5.84375 5.46875 -5.21875 C 6.625 -4.671875 7.1875 -3.90625 7.1875 -2.796875 Z M 5.578125 -7.25 C 5.578125 -8.21875 4.90625 -8.828125 3.84375 -8.828125 C 2.8125 -8.828125 2.125 -8.21875 2.125 -7.265625 C 2.125 -6.328125 2.8125 -5.71875 3.84375 -5.71875 C 4.890625 -5.71875 5.578125 -6.328125 5.578125 -7.25 Z M 5.921875 -2.78125 C 5.921875 -3.953125 5.078125 -4.671875 3.84375 -4.671875 C 2.625 -4.671875 1.78125 -3.953125 1.78125 -2.78125 C 1.78125 -1.625 2.625 -0.875 3.828125 -0.875 C 5.078125 -0.875 5.921875 -1.609375 5.921875 -2.78125 Z M 5.921875 -2.78125 "/>
</g>
<g id="glyph-5-0-0c9b23ed">
<path d="M 7.46875 0 C 7.46875 0 1.125 0 1.125 0 C 1.125 0 1.125 -10.203125 1.125 -10.203125 C 1.125 -10.203125 2.421875 -10.203125 2.421875 -10.203125 C 2.421875 -10.203125 2.421875 -1.140625 2.421875 -1.140625 C 2.421875 -1.140625 7.46875 -1.140625 7.46875 -1.140625 C 7.46875 -1.140625 7.46875 0 7.46875 0 Z M 7.46875 0 "/>
</g>
<g id="glyph-5-1-0c9b23ed">
<path d="M 7.140625 -3.609375 C 7.140625 -1.203125 5.875 0.203125 3.828125 0.203125 C 1.734375 0.203125 0.5 -1.203125 0.5 -3.671875 C 0.5 -6.125 1.75 -7.546875 3.8125 -7.546875 C 5.921875 -7.546875 7.140625 -6.140625 7.140625 -3.609375 Z M 5.921875 -3.625 C 5.921875 -5.453125 5.140625 -6.46875 3.828125 -6.46875 C 2.515625 -6.46875 1.71875 -5.4375 1.71875 -3.671875 C 1.71875 -1.890625 2.515625 -0.875 3.828125 -0.875 C 5.109375 -0.875 5.921875 -1.90625 5.921875 -3.625 Z M 5.921875 -3.625 "/>
</g>
<g id="glyph-5-2-0c9b23ed">
<path d="M 9.90625 -7.34375 C 9.90625 -7.34375 7.75 0 7.75 0 C 7.75 0 6.421875 0 6.421875 0 C 6.421875 0 4.9375 -5.75 4.9375 -5.75 C 4.9375 -5.75 3.53125 0 3.53125 0 C 3.53125 0 2.21875 0 2.21875 0 C 2.21875 0 0.078125 -7.34375 0.078125 -7.34375 C 0.078125 -7.34375 1.375 -7.34375 1.375 -7.34375 C 1.375 -7.34375 2.875 -1.625 2.875 -1.625 C 2.875 -1.625 4.265625 -7.34375 4.265625 -7.34375 C 4.265625 -7.34375 5.703125 -7.34375 5.703125 -7.34375 C 5.703125 -7.34375 7.140625 -1.625 7.140625 -1.625 C 7.140625 -1.625 8.59375 -7.34375 8.59375 -7.34375 C 8.59375 -7.34375 9.90625 -7.34375 9.90625 -7.34375 Z M 9.90625 -7.34375 "/>
</g>
<g id="glyph-5-3-0c9b23ed">
<path d="M 7.1875 -3.328125 C 7.1875 -3.328125 1.78125 -3.328125 1.78125 -3.328125 C 1.8125 -1.65625 2.71875 -0.875 3.9375 -0.875 C 4.875 -0.875 5.53125 -1.265625 5.859375 -2.21875 C 5.859375 -2.21875 7.03125 -2.21875 7.03125 -2.21875 C 6.734375 -0.734375 5.578125 0.203125 3.890625 0.203125 C 1.828125 0.203125 0.5625 -1.21875 0.5625 -3.625 C 0.5625 -6.03125 1.875 -7.546875 3.921875 -7.546875 C 5.296875 -7.546875 6.40625 -6.8125 6.890625 -5.609375 C 7.09375 -5.0625 7.1875 -4.390625 7.1875 -3.328125 Z M 5.9375 -4.375 C 5.9375 -5.515625 5.046875 -6.46875 3.90625 -6.46875 C 2.734375 -6.46875 1.90625 -5.59375 1.8125 -4.28125 C 1.8125 -4.28125 5.921875 -4.28125 5.921875 -4.28125 C 5.9375 -4.3125 5.9375 -4.375 5.9375 -4.375 Z M 5.9375 -4.375 "/>
</g>
<g id="glyph-5-4-0c9b23ed">
<path d="M 4.5 -6.3125 C 2.6875 -6.28125 2.140625 -5.453125 2.140625 -3.8125 C 2.140625 -3.8125 2.140625 0 2.140625 0 C 2.140625 0 0.984375 0 0.984375 0 C 0.984375 0 0.984375 -7.34375 0.984375 -7.34375 C 0.984375 -7.34375 2.046875 -7.34375 2.046875 -7.34375 C 2.046875 -7.34375 2.046875 -6 2.046875 -6 C 2.71875 -7.09375 3.296875 -7.546875 4.046875 -7.546875 C 4.203125 -7.546875 4.296875 -7.53125 4.5 -7.5 C 4.5 -7.5 4.5 -6.3125 4.5 -6.3125 Z M 4.5 -6.3125 "/>
</g>
<g id="glyph-5-5-0c9b23ed">
</g>
<g id="glyph-5-6-0c9b23ed">
<path d="M 6.796875 0 C 6.796875 0 5.640625 0 5.640625 0 C 5.640625 0 5.640625 -5.078125 5.640625 -5.078125 C 5.640625 -6.046875 4.953125 -6.53125 4.125 -6.53125 C 2.921875 -6.53125 2.140625 -5.546875 2.140625 -4.046875 C 2.140625 -4.046875 2.140625 0 2.140625 0 C 2.140625 0 0.984375 0 0.984375 0 C 0.984375 0 0.984375 -10.203125 0.984375 -10.203125 C 0.984375 -10.203125 2.140625 -10.203125 2.140625 -10.203125 C 2.140625 -10.203125 2.140625 -6.328125 2.140625 -6.328125 C 2.828125 -7.21875 3.453125 -7.546875 4.5 -7.546875 C 5.921875 -7.546875 6.796875 -6.78125 6.796875 -5.546875 C 6.796875 -5.546875 6.796875 0 6.796875 0 Z M 6.796875 0 "/>
</g>
<g id="glyph-5-7-0c9b23ed">
<path d="M 6.75 0 C 6.75 0 5.703125 0 5.703125 0 C 5.703125 0 5.703125 -1.140625 5.703125 -1.140625 C 5.015625 -0.171875 4.328125 0.203125 3.25 0.203125 C 1.8125 0.203125 0.90625 -0.578125 0.90625 -1.796875 C 0.90625 -1.796875 0.90625 -7.34375 0.90625 -7.34375 C 0.90625 -7.34375 2.078125 -7.34375 2.078125 -7.34375 C 2.078125 -7.34375 2.078125 -2.25 2.078125 -2.25 C 2.078125 -1.375 2.65625 -0.8125 3.578125 -0.8125 C 4.796875 -0.8125 5.59375 -1.796875 5.59375 -3.296875 C 5.59375 -3.296875 5.59375 -7.34375 5.59375 -7.34375 C 5.59375 -7.34375 6.75 -7.34375 6.75 -7.34375 C 6.75 -7.34375 6.75 0 6.75 0 Z M 6.75 0 "/>
</g>
<g id="glyph-5-8-0c9b23ed">
<path d="M 2.109375 0 C 2.109375 0 0.953125 0 0.953125 0 C 0.953125 0 0.953125 -10.203125 0.953125 -10.203125 C 0.953125 -10.203125 2.109375 -10.203125 2.109375 -10.203125 C 2.109375 -10.203125 2.109375 0 2.109375 0 Z M 2.109375 0 "/>
</g>
</g>
</defs>
<rect x="-60" y="-45" width="720" height="540" fill="rgb(100%, 100%, 100%)" fill-opacity="1"/>
<g fill="rgb(0%, 0%, 0%)" fill-opacity="1">
<use xlink:href="#glyph-0-0-0c9b23ed" x="75.718914" y="432.258"/>
</g>
<g fill="rgb(0%, 0%, 0%)" fill-opacity="1">
<use xlink:href="#glyph-0-1-0c9b23ed" x="83.894914" y="432.258"/>
</g>
<g fill="rgb(0%, 0%, 0%)" fill-opacity="1">
<use xlink:href="#glyph-0-2-0c9b23ed" x="91.678913" y="432.258"/>
</g>
<g fill="rgb(0%, 0%, 0%)" fill-opacity="1">
<use xlink:href="#glyph-0-0-0c9b23ed" x="128.673459" y="432.258"/>
</g>
<g fill="rgb(0%, 0%, 0%)" fill-opacity="1">
<use xlink:href="#glyph-0-3-0c9b23ed" x="136.849459" y="432.258"/>
</g>
<g fill="rgb(0%, 0%, 0%)" fill-opacity="1">
<use xlink:href="#glyph-0-2-0c9b23ed" x="144.633459" y="432.258"/>
</g>
<g fill="rgb(0%, 0%, 0%)" fill-opacity="1">
<use xlink:href="#glyph-0-2-0c9b23ed" x="189.608005" y="432.258"/>
</g>
<g fill="rgb(0%, 0%, 0%)" fill-opacity="1">
<use xlink:href="#glyph-0-3-0c9b23ed" x="238.67055" y="432.258"/>
</g>
<g fill="rgb(0%, 0%, 0%)" fill-opacity="1">
<use xlink:href="#glyph-1-0-0c9b23ed" x="246.45455" y="432.258"/>
</g>
<g fill="rgb(0%, 0%, 0%)" fill-opacity="1">
<use xlink:href="#glyph-0-1-0c9b23ed" x="291.625095" y="432.258"/>
</g>
<g fill="rgb(0%, 0%, 0%)" fill-opacity="1">
<use xlink:href="#glyph-0-2-0c9b23ed" x="299.409095" y="432.258"/>
</g>
<g fill="rgb(0%, 0%, 0%)" fill-opacity="1">
<use xlink:href="#glyph-0-0-0c9b23ed" x="15.007695" y="370.096039"/>
</g>
<g fill="rgb(0%, 0%, 0%)" fill-opacity="1">
<use xlink:href="#glyph-0-4-0c9b23ed" x="23.183693" y="370.096039"/>
</g>
<g fill="rgb(0%, 0%, 0%)" fill-opacity="1">
<use xlink:href="#glyph-0-5-0c9b23ed" x="30.967694" y="370.096039"/>
</g>
<g fill="rgb(0%, 0%, 0%)" fill-opacity="1">
<use xlink:href="#glyph-0-2-0c9b23ed" x="34.859696" y="370.096039"/>
</g>
<g fill="rgb(0%, 0%, 0%)" fill-opacity="1">
<use xlink:href="#glyph-0-6-0c9b23ed" x="42.643695" y="370.096039"/>
</g>
<g fill="rgb(0%, 0%, 0%)" fill-opacity="1">
<use xlink:href="#glyph-0-3-0c9b23ed" x="50.819696" y="370.096039"/>
</g>
<g fill="rgb(0%, 0%, 0%)" fill-opacity="1">
<use xlink:href="#glyph-2-0-0c9b23ed" x="58.603696" y="370.096039"/>
</g>
<g fill="rgb(0%, 0%, 0%)" fill-opacity="1">
<use xlink:href="#glyph-3-0-0c9b23ed" x="66.387697" y="370.096039"/>
</g>
<g fill="rgb(0%, 0%, 0%)" fill-opacity="1">
<use xlink:href="#glyph-0-0-0c9b23ed" x="15.007695" y="287.371962"/>
</g>
<g fill="rgb(0%, 0%, 0%)" fill-opacity="1">
<use xlink:href="#glyph-0-7-0c9b23ed" x="23.183693" y="287.371962"/>
</g>
<g fill="rgb(0%, 0%, 0%)" fill-opacity="1">
<use xlink:href="#glyph-0-5-0c9b23ed" x="30.967694" y="287.371962"/>
</g>
<g fill="rgb(0%, 0%, 0%)" fill-opacity="1">
<use xlink:href="#glyph-0-2-0c9b23ed" x="34.859696" y="287.371962"/>
</g>
<g fill="rgb(0%, 0%, 0%)" fill-opacity="1">
<use xlink:href="#glyph-0-6-0c9b23ed" x="42.643695" y="287.371962"/>
</g>
<g fill="rgb(0%, 0%, 0%)" fill-opacity="1">
<use xlink:href="#glyph-0-3-0c9b23ed" x="50.819696" y="287.371962"/>
</g>
<g fill="rgb(0%, 0%, 0%)" fill-opacity="1">
<use xlink:href="#glyph-2-0-0c9b23ed" x="58.603696" y="287.371962"/>
</g>
<g fill="rgb(0%, 0%, 0%)" fill-opacity="1">
<use xlink:href="#glyph-3-0-0c9b23ed" x="66.387697" y="287.371962"/>
</g>
<g fill="rgb(0%, 0%, 0%)" fill-opacity="1">
<use xlink:href="#glyph-0-0-0c9b23ed" x="15.007695" y="204.647869"/>
</g>
<g fill="rgb(0%, 0%, 0%)" fill-opacity="1">
<use xlink:href="#glyph-0-1-0c9b23ed" x="23.183693" y="204.647869"/>
</g>
<g fill="rgb(0%, 0%, 0%)" fill-opacity="1">
<use xlink:href="#glyph-0-5-0c9b23ed" x="30.967694" y="204.647869"/>
</g>
<g fill="rgb(0%, 0%, 0%)" fill-opacity="1">
<use xlink:href="#glyph-0-2-0c9b23ed" x="34.859696" y="204.647869"/>
</g>
<g fill="rgb(0%, 0%, 0%)" fill-opacity="1">
<use xlink:href="#glyph-0-6-0c9b23ed" x="42.643695" y="204.647869"/>
</g>
<g fill="rgb(0%, 0%, 0%)" fill-opacity="1">
<use xlink:href="#glyph-0-3-0c9b23ed" x="50.819696" y="204.647869"/>
</g>
<g fill="rgb(0%, 0%, 0%)" fill-opacity="1">
<use xlink:href="#glyph-2-0-0c9b23ed" x="58.603696" y="204.647869"/>
</g>
<g fill="rgb(0%, 0%, 0%)" fill-opacity="1">
<use xlink:href="#glyph-3-0-0c9b23ed" x="66.387697" y="204.647869"/>
</g>
<g fill="rgb(0%, 0%, 0%)" fill-opacity="1">
<use xlink:href="#glyph-0-0-0c9b23ed" x="15.007695" y="121.923792"/>
</g>
<g fill="rgb(0%, 0%, 0%)" fill-opacity="1">
<use xlink:href="#glyph-0-3-0c9b23ed" x="23.183693" y="121.923792"/>
</g>
<g fill="rgb(0%, 0%, 0%)" fill-opacity="1">
<use xlink:href="#glyph-0-5-0c9b23ed" x="30.967694" y="121.923792"/>
</g>
<g fill="rgb(0%, 0%, 0%)" fill-opacity="1">
<use xlink:href="#glyph-0-2-0c9b23ed" x="34.859696" y="121.923792"/>
</g>
<g fill="rgb(0%, 0%, 0%)" fill-opacity="1">
<use xlink:href="#glyph-0-6-0c9b23ed" x="42.643695" y="121.923792"/>
</g>
<g fill="rgb(0%, 0%, 0%)" fill-opacity="1">
<use xlink:href="#glyph-0-3-0c9b23ed" x="50.819696" y="121.923792"/>
</g>
<g fill="rgb(0%, 0%, 0%)" fill-opacity="1">
<use xlink:href="#glyph-2-0-0c9b23ed" x="58.603696" y="121.923792"/>
</g>
<g fill="rgb(0%, 0%, 0%)" fill-opacity="1">
<use xlink:href="#glyph-3-0-0c9b23ed" x="66.387697" y="121.923792"/>
</g>
<g fill="rgb(0%, 0%, 0%)" fill-opacity="1">
<use xlink:href="#glyph-0-2-0c9b23ed" x="64.216002" y="39.324578"/>
</g>
<path fill="none" stroke-width="1.5" stroke-linecap="butt" stroke-linejoin="miter" stroke="rgb(0%, 44.705883%, 69.803923%)" stroke-opacity="1" stroke-miterlimit="2" d="M 87.589844 42.246094 L 89.777344 42.078125 L 102.585938 41.078125 L 108.542969 40.609375 L 116.53125 39.988281 L 123.128906 39.472656 L 129.265625 38.992188 L 136.96875 38.390625 L 143.878906 37.851562 L 151.785156 37.234375 L 157.699219 36.773438 L 165.261719 36.183594 L 172.164062 35.65625 L 180.019531 35.082031 L 186.246094 34.699219 L 193.980469 34.378906 L 199.90625 34.253906 L 208.257812 34.183594 L 214.5 34.183594 L 221.597656 34.238281 L 228.628906 34.402344 L 236.363281 34.832031 L 242.269531 35.496094 L 245.996094 36.164062 L 249.722656 37.125 L 253.171875 38.386719 L 256.617188 40.140625 L 258.398438 41.296875 L 260.175781 42.667969 L 261.953125 44.296875 L 263.730469 46.21875 L 265.53125 48.53125 L 267.332031 51.277344 L 269.136719 54.535156 L 270.9375 58.398438 L 271.878906 60.691406 L 272.820312 63.199219 L 273.761719 65.941406 L 274.699219 68.9375 L 275.640625 72.214844 L 276.582031 75.796875 L 277.523438 79.710938 L 278.464844 83.992188 L 279.203125 87.640625 L 279.945312 91.554688 L 280.6875 95.753906 L 281.429688 100.257812 L 282.167969 105.089844 L 282.910156 110.269531 L 283.652344 115.824219 L 284.394531 121.785156 L 285.238281 129.101562 L 286.082031 137.023438 L 286.925781 145.601562 L 287.769531 154.894531 L 288.613281 164.957031 L 289.457031 175.855469 L 289.878906 181.636719 L 290.300781 187.65625 L 290.722656 193.917969 L 291.144531 200.4375 L 291.566406 207.222656 L 291.988281 214.28125 L 292.410156 221.625 L 292.832031 229.269531 L 293.253906 237.226562 L 293.675781 245.503906 L 294.097656 254.121094 L 294.519531 263.085938 L 294.941406 272.417969 L 295.363281 282.128906 L 295.785156 292.230469 L 296.207031 302.746094 L 296.628906 313.691406 L 297.050781 325.078125 L 297.472656 336.929688 L 297.894531 349.261719 L 298.082031 354.957031 L 298.273438 360.757812 L 298.460938 366.660156 L 298.652344 372.671875 L 298.839844 378.792969 L 299.03125 385.019531 L 299.21875 391.363281 L 299.410156 397.816406 "/>
<g fill="rgb(0%, 0%, 0%)" fill-opacity="1">
<use xlink:href="#glyph-0-2-0c9b23ed" x="357.698921" y="432.258"/>
</g>
<g fill="rgb(0%, 0%, 0%)" fill-opacity="1">
<use xlink:href="#glyph-0-8-0c9b23ed" x="463.608011" y="432.258"/>
</g>
<g fill="rgb(0%, 0%, 0%)" fill-opacity="1">
<use xlink:href="#glyph-0-3-0c9b23ed" x="565.625132" y="432.258"/>
</g>
<g fill="rgb(0%, 0%, 0%)" fill-opacity="1">
<use xlink:href="#glyph-0-2-0c9b23ed" x="573.409133" y="432.258"/>
</g>
<g fill="rgb(0%, 0%, 0%)" fill-opacity="1">
<use xlink:href="#glyph-0-2-0c9b23ed" x="326.540009" y="402.921179"/>
</g>
<g fill="rgb(0%, 0%, 0%)" fill-opacity="1">
<use xlink:href="#glyph-0-5-0c9b23ed" x="334.324009" y="402.921179"/>
</g>
<g fill="rgb(0%, 0%, 0%)" fill-opacity="1">
<use xlink:href="#glyph-0-2-0c9b23ed" x="338.216009" y="402.921179"/>
</g>
<g fill="rgb(0%, 0%, 0%)" fill-opacity="1">
<use xlink:href="#glyph-0-2-0c9b23ed" x="326.540009" y="308.573868"/>
</g>
<g fill="rgb(0%, 0%, 0%)" fill-opacity="1">
<use xlink:href="#glyph-0-5-0c9b23ed" x="334.324009" y="308.573868"/>
</g>
<g fill="rgb(0%, 0%, 0%)" fill-opacity="1">
<use xlink:href="#glyph-0-1-0c9b23ed" x="338.216009" y="308.573868"/>
</g>
<g fill="rgb(0%, 0%, 0%)" fill-opacity="1">
<use xlink:href="#glyph-0-2-0c9b23ed" x="326.540009" y="214.22656"/>
</g>
<g fill="rgb(0%, 0%, 0%)" fill-opacity="1">
<use xlink:href="#glyph-0-5-0c9b23ed" x="334.324009" y="214.22656"/>
</g>
<g fill="rgb(0%, 0%, 0%)" fill-opacity="1">
<use xlink:href="#glyph-0-4-0c9b23ed" x="338.216009" y="214.22656"/>
</g>
<g fill="rgb(0%, 0%, 0%)" fill-opacity="1">
<use xlink:href="#glyph-0-2-0c9b23ed" x="326.540009" y="119.879268"/>
</g>
<g fill="rgb(0%, 0%, 0%)" fill-opacity="1">
<use xlink:href="#glyph-0-5-0c9b23ed" x="334.324009" y="119.879268"/>
</g>
<g fill="rgb(0%, 0%, 0%)" fill-opacity="1">
<use xlink:href="#glyph-0-9-0c9b23ed" x="338.216009" y="119.879268"/>
</g>
<g fill="rgb(0%, 0%, 0%)" fill-opacity="1">
<use xlink:href="#glyph-4-0-0c9b23ed" x="326.540009" y="25.531945"/>
</g>
<g fill="rgb(0%, 0%, 0%)" fill-opacity="1">
<use xlink:href="#glyph-4-1-0c9b23ed" x="334.324009" y="25.531945"/>
</g>
<g fill="rgb(0%, 0%, 0%)" fill-opacity="1">
<use xlink:href="#glyph-4-2-0c9b23ed" x="338.216009" y="25.531945"/>
</g>
<path fill-rule="nonzero" fill="rgb(50.196081%, 50.196081%, 50.196081%)" fill-opacity="1" d="M 391.089844 397.816406 L 392.773438 397.816406 L 392.773438 397.222656 L 391.089844 397.222656 Z M 391.089844 397.816406 "/>
<path fill-rule="nonzero" fill="rgb(50.196081%, 50.196081%, 50.196081%)" fill-opacity="1" d="M 394.460938 397.816406 L 396.144531 397.816406 L 396.144531 396.628906 L 394.460938 396.628906 Z M 394.460938 397.816406 "/>
<path fill-rule="nonzero" fill="rgb(50.196081%, 50.196081%, 50.196081%)" fill-opacity="1" d="M 396.144531 397.816406 L 397.828125 397.816406 L 397.828125 397.222656 L 396.144531 397.222656 Z M 396.144531 397.816406 "/>
<path fill-rule="nonzero" fill="rgb(50.196081%, 50.196081%, 50.196081%)" fill-opacity="1" d="M 397.828125 397.816406 L 399.511719 397.816406 L 399.511719 395.445312 L 397.828125 395.445312 Z M 397.828125 397.816406 "/>
<path fill-rule="nonzero" fill="rgb(50.196081%, 50.196081%, 50.196081%)" fill-opacity="1" d="M 399.511719 397.816406 L 401.195312 397.816406 L 401.195312 395.445312 L 399.511719 395.445312 Z M 399.511719 397.816406 "/>
<path fill-rule="nonzero" fill="rgb(50.196081%, 50.196081%, 50.196081%)" fill-opacity="1" d="M 401.195312 397.816406 L 402.878906 397.816406 L 402.878906 393.070312 L 401.195312 393.070312 Z M 401.195312 397.816406 "/>
<path fill-rule="nonzero" fill="rgb(50.196081%, 50.196081%, 50.196081%)" fill-opacity="1" d="M 402.882812 397.816406 L 404.566406 397.816406 L 404.566406 390.105469 L 402.882812 390.105469 Z M 402.882812 397.816406 "/>
<path fill-rule="nonzero" fill="rgb(50.196081%, 50.196081%, 50.196081%)" fill-opacity="1" d="M 404.566406 397.816406 L 406.25 397.816406 L 406.25 386.546875 L 404.566406 386.546875 Z M 404.566406 397.816406 "/>
<path fill-rule="nonzero" fill="rgb(50.196081%, 50.196081%, 50.196081%)" fill-opacity="1" d="M 406.25 397.816406 L 407.933594 397.816406 L 407.933594 380.613281 L 406.25 380.613281 Z M 406.25 397.816406 "/>
<path fill-rule="nonzero" fill="rgb(50.196081%, 50.196081%, 50.196081%)" fill-opacity="1" d="M 407.933594 397.816406 L 409.617188 397.816406 L 409.617188 370.527344 L 407.933594 370.527344 Z M 407.933594 397.816406 "/>
<path fill-rule="nonzero" fill="rgb(50.196081%, 50.196081%, 50.196081%)" fill-opacity="1" d="M 409.617188 397.816406 L 411.300781 397.816406 L 411.300781 367.5625 L 409.617188 367.5625 Z M 409.617188 397.816406 "/>
<path fill-rule="nonzero" fill="rgb(50.196081%, 50.196081%, 50.196081%)" fill-opacity="1" d="M 411.304688 397.816406 L 412.988281 397.816406 L 412.988281 355.105469 L 411.304688 355.105469 Z M 411.304688 397.816406 "/>
<path fill-rule="nonzero" fill="rgb(50.196081%, 50.196081%, 50.196081%)" fill-opacity="1" d="M 412.988281 397.816406 L 414.671875 397.816406 L 414.671875 339.683594 L 412.988281 339.683594 Z M 412.988281 397.816406 "/>
<path fill-rule="nonzero" fill="rgb(50.196081%, 50.196081%, 50.196081%)" fill-opacity="1" d="M 414.671875 397.816406 L 416.355469 397.816406 L 416.355469 318.917969 L 414.671875 318.917969 Z M 414.671875 397.816406 "/>
<path fill-rule="nonzero" fill="rgb(50.196081%, 50.196081%, 50.196081%)" fill-opacity="1" d="M 416.355469 397.816406 L 418.039062 397.816406 L 418.039062 302.902344 L 416.355469 302.902344 Z M 416.355469 397.816406 "/>
<path fill-rule="nonzero" fill="rgb(50.196081%, 50.196081%, 50.196081%)" fill-opacity="1" d="M 418.042969 397.816406 L 419.726562 397.816406 L 419.726562 268.496094 L 418.042969 268.496094 Z M 418.042969 397.816406 "/>
<path fill-rule="nonzero" fill="rgb(50.196081%, 50.196081%, 50.196081%)" fill-opacity="1" d="M 419.726562 397.816406 L 421.410156 397.816406 L 421.410156 234.683594 L 419.726562 234.683594 Z M 419.726562 397.816406 "/>
<path fill-rule="nonzero" fill="rgb(50.196081%, 50.196081%, 50.196081%)" fill-opacity="1" d="M 421.410156 397.816406 L 423.09375 397.816406 L 423.09375 223.414062 L 421.410156 223.414062 Z M 421.410156 397.816406 "/>
<path fill-rule="nonzero" fill="rgb(50.196081%, 50.196081%, 50.196081%)" fill-opacity="1" d="M 423.09375 397.816406 L 424.777344 397.816406 L 424.777344 197.3125 L 423.09375 197.3125 Z M 423.09375 397.816406 "/>
<path fill-rule="nonzero" fill="rgb(50.196081%, 50.196081%, 50.196081%)" fill-opacity="1" d="M 424.777344 397.816406 L 426.460938 397.816406 L 426.460938 151.042969 L 424.777344 151.042969 Z M 424.777344 397.816406 "/>
<path fill-rule="nonzero" fill="rgb(50.196081%, 50.196081%, 50.196081%)" fill-opacity="1" d="M 426.464844 397.816406 L 428.148438 397.816406 L 428.148438 126.71875 L 426.464844 126.71875 Z M 426.464844 397.816406 "/>
<path fill-rule="nonzero" fill="rgb(50.196081%, 50.196081%, 50.196081%)" fill-opacity="1" d="M 428.148438 397.816406 L 429.832031 397.816406 L 429.832031 92.3125 L 428.148438 92.3125 Z M 428.148438 397.816406 "/>
<path fill-rule="nonzero" fill="rgb(50.196081%, 50.196081%, 50.196081%)" fill-opacity="1" d="M 429.832031 397.816406 L 431.515625 397.816406 L 431.515625 43.671875 L 429.832031 43.671875 Z M 429.832031 397.816406 "/>
<path fill-rule="nonzero" fill="rgb(50.196081%, 50.196081%, 50.196081%)" fill-opacity="1" d="M 431.515625 397.816406 L 433.199219 397.816406 L 433.199219 95.875 L 431.515625 95.875 Z M 431.515625 397.816406 "/>
<path fill-rule="nonzero" fill="rgb(50.196081%, 50.196081%, 50.196081%)" fill-opacity="1" d="M 433.203125 397.816406 L 434.886719 397.816406 L 434.886719 34.179688 L 433.203125 34.179688 Z M 433.203125 397.816406 "/>
<path fill-rule="nonzero" fill="rgb(50.196081%, 50.196081%, 50.196081%)" fill-opacity="1" d="M 434.886719 397.816406 L 436.570312 397.816406 L 436.570312 56.128906 L 434.886719 56.128906 Z M 434.886719 397.816406 "/>
<path fill-rule="nonzero" fill="rgb(50.196081%, 50.196081%, 50.196081%)" fill-opacity="1" d="M 436.570312 397.816406 L 438.253906 397.816406 L 438.253906 42.484375 L 436.570312 42.484375 Z M 436.570312 397.816406 "/>
<path fill-rule="nonzero" fill="rgb(50.196081%, 50.196081%, 50.196081%)" fill-opacity="1" d="M 438.253906 397.816406 L 439.9375 397.816406 L 439.9375 46.636719 L 438.253906 46.636719 Z M 438.253906 397.816406 "/>
<path fill-rule="nonzero" fill="rgb(50.196081%, 50.196081%, 50.196081%)" fill-opacity="1" d="M 439.9375 397.816406 L 441.621094 397.816406 L 441.621094 56.128906 L 439.9375 56.128906 Z M 439.9375 397.816406 "/>
<path fill-rule="nonzero" fill="rgb(50.196081%, 50.196081%, 50.196081%)" fill-opacity="1" d="M 441.625 397.816406 L 443.308594 397.816406 L 443.308594 103.585938 L 441.625 103.585938 Z M 441.625 397.816406 "/>
<path fill-rule="nonzero" fill="rgb(50.196081%, 50.196081%, 50.196081%)" fill-opacity="1" d="M 443.308594 397.816406 L 444.992188 397.816406 L 444.992188 133.839844 L 443.308594 133.839844 Z M 443.308594 397.816406 "/>
<path fill-rule="nonzero" fill="rgb(50.196081%, 50.196081%, 50.196081%)" fill-opacity="1" d="M 444.992188 397.816406 L 446.675781 397.816406 L 446.675781 165.277344 L 444.992188 165.277344 Z M 444.992188 397.816406 "/>
<path fill-rule="nonzero" fill="rgb(50.196081%, 50.196081%, 50.196081%)" fill-opacity="1" d="M 446.675781 397.816406 L 448.359375 397.816406 L 448.359375 187.226562 L 446.675781 187.226562 Z M 446.675781 397.816406 "/>
<path fill-rule="nonzero" fill="rgb(50.196081%, 50.196081%, 50.196081%)" fill-opacity="1" d="M 448.359375 397.816406 L 450.042969 397.816406 L 450.042969 227.566406 L 448.359375 227.566406 Z M 448.359375 397.816406 "/>
<path fill-rule="nonzero" fill="rgb(50.196081%, 50.196081%, 50.196081%)" fill-opacity="1" d="M 450.046875 397.816406 L 451.730469 397.816406 L 451.730469 260.785156 L 450.046875 260.785156 Z M 450.046875 397.816406 "/>
<path fill-rule="nonzero" fill="rgb(50.196081%, 50.196081%, 50.196081%)" fill-opacity="1" d="M 451.730469 397.816406 L 453.414062 397.816406 L 453.414062 297.5625 L 451.730469 297.5625 Z M 451.730469 397.816406 "/>
<path fill-rule="nonzero" fill="rgb(50.196081%, 50.196081%, 50.196081%)" fill-opacity="1" d="M 453.414062 397.816406 L 455.097656 397.816406 L 455.097656 325.445312 L 453.414062 325.445312 Z M 453.414062 397.816406 "/>
<path fill-rule="nonzero" fill="rgb(50.196081%, 50.196081%, 50.196081%)" fill-opacity="1" d="M 455.097656 397.816406 L 456.78125 397.816406 L 456.78125 349.171875 L 455.097656 349.171875 Z M 455.097656 397.816406 "/>
<path fill-rule="nonzero" fill="rgb(50.196081%, 50.196081%, 50.196081%)" fill-opacity="1" d="M 456.785156 397.816406 L 458.46875 397.816406 L 458.46875 356.886719 L 456.785156 356.886719 Z M 456.785156 397.816406 "/>
<path fill-rule="nonzero" fill="rgb(50.196081%, 50.196081%, 50.196081%)" fill-opacity="1" d="M 458.46875 397.816406 L 460.152344 397.816406 L 460.152344 374.089844 L 458.46875 374.089844 Z M 458.46875 397.816406 "/>
<path fill-rule="nonzero" fill="rgb(50.196081%, 50.196081%, 50.196081%)" fill-opacity="1" d="M 460.152344 397.816406 L 461.835938 397.816406 L 461.835938 380.613281 L 460.152344 380.613281 Z M 460.152344 397.816406 "/>
<path fill-rule="nonzero" fill="rgb(50.196081%, 50.196081%, 50.196081%)" fill-opacity="1" d="M 461.835938 397.816406 L 463.519531 397.816406 L 463.519531 382.984375 L 461.835938 382.984375 Z M 461.835938 397.816406 "/>
<path fill-rule="nonzero" fill="rgb(50.196081%, 50.196081%, 50.196081%)" fill-opacity="1" d="M 463.519531 397.816406 L 465.203125 397.816406 L 465.203125 386.546875 L 463.519531 386.546875 Z M 463.519531 397.816406 "/>
<path fill-rule="nonzero" fill="rgb(50.196081%, 50.196081%, 50.196081%)" fill-opacity="1" d="M 465.207031 397.816406 L 466.890625 397.816406 L 466.890625 391.882812 L 465.207031 391.882812 Z M 465.207031 397.816406 "/>
<path fill-rule="nonzero" fill="rgb(50.196081%, 50.196081%, 50.196081%)" fill-opacity="1" d="M 466.890625 397.816406 L 468.574219 397.816406 L 468.574219 394.851562 L 466.890625 394.851562 Z M 466.890625 397.816406 "/>
<path fill-rule="nonzero" fill="rgb(50.196081%, 50.196081%, 50.196081%)" fill-opacity="1" d="M 468.574219 397.816406 L 470.257812 397.816406 L 470.257812 395.445312 L 468.574219 395.445312 Z M 468.574219 397.816406 "/>
<path fill-rule="nonzero" fill="rgb(50.196081%, 50.196081%, 50.196081%)" fill-opacity="1" d="M 470.257812 397.816406 L 471.941406 397.816406 L 471.941406 397.222656 L 470.257812 397.222656 Z M 470.257812 397.816406 "/>
<path fill-rule="nonzero" fill="rgb(50.196081%, 50.196081%, 50.196081%)" fill-opacity="1" d="M 471.945312 397.816406 L 473.628906 397.816406 L 473.628906 396.628906 L 471.945312 396.628906 Z M 471.945312 397.816406 "/>
<path fill-rule="nonzero" fill="rgb(50.196081%, 50.196081%, 50.196081%)" fill-opacity="1" d="M 473.628906 397.816406 L 475.3125 397.816406 L 475.3125 397.222656 L 473.628906 397.222656 Z M 473.628906 397.816406 "/>
<path fill="none" stroke-width="1.5" stroke-linecap="butt" stroke-linejoin="miter" stroke="rgb(0%, 44.705883%, 69.803923%)" stroke-opacity="1" stroke-miterlimit="2" d="M 361.589844 397.816406 L 382.542969 397.816406 L 390.53125 397.796875 L 393.828125 397.675781 L 397.128906 396.902344 L 400.195312 395.347656 L 403.265625 393.304688 L 404.226562 392.367188 L 405.191406 391.230469 L 406.152344 389.859375 L 407.117188 388.199219 L 408.078125 386.195312 L 409.042969 383.777344 L 410.003906 380.851562 L 410.96875 377.316406 L 411.832031 373.527344 L 412.695312 369.035156 L 413.558594 363.710938 L 414.421875 357.402344 L 414.855469 353.820312 L 415.285156 349.925781 L 415.71875 345.683594 L 416.148438 341.066406 L 416.582031 336.042969 L 417.015625 330.570312 L 417.445312 324.617188 L 417.878906 318.132812 L 418.371094 310.007812 L 418.867188 301.050781 L 419.113281 296.234375 L 419.359375 291.179688 L 419.609375 285.875 L 419.855469 280.304688 L 420.101562 274.457031 L 420.347656 268.316406 L 420.597656 261.871094 L 420.84375 255.109375 L 421.089844 248.007812 L 421.339844 240.550781 L 421.585938 232.726562 L 421.832031 224.511719 L 421.894531 222.394531 L 421.957031 220.25 L 422.019531 218.574219 L 422.078125 217.488281 L 422.203125 215.292969 L 422.328125 213.074219 L 422.574219 208.558594 L 422.820312 203.925781 L 423.066406 199.183594 L 423.316406 195.707031 L 423.5625 192.667969 L 423.808594 189.582031 L 424.304688 183.273438 L 424.796875 176.773438 L 425.292969 170.074219 L 425.785156 163.175781 L 426.527344 152.464844 L 427.265625 141.269531 L 428.003906 129.5625 L 428.742188 117.320312 L 429.480469 104.519531 L 430.222656 91.136719 L 430.589844 84.21875 L 430.960938 77.140625 L 431.328125 69.90625 L 431.699219 62.507812 L 431.816406 60.105469 L 431.9375 57.6875 L 432.054688 55.789062 L 432.171875 55.28125 L 432.40625 54.269531 L 432.644531 53.25 L 433.117188 51.203125 L 433.589844 49.148438 L 434.0625 47.078125 L 434.535156 44.996094 L 435.007812 42.902344 L 435.480469 40.796875 L 435.597656 40.269531 L 435.714844 39.738281 L 435.835938 40.363281 L 435.953125 41.105469 L 436.1875 42.582031 L 436.425781 44.054688 L 436.898438 46.980469 L 437.371094 49.882812 L 437.84375 52.757812 L 438.316406 55.613281 L 438.789062 58.441406 L 439.261719 61.246094 L 439.367188 61.882812 L 439.476562 62.519531 L 439.53125 62.835938 L 439.585938 63.15625 L 439.636719 64.21875 L 439.691406 65.535156 L 439.90625 70.746094 L 440.125 75.875 L 440.554688 85.894531 L 440.988281 95.601562 L 441.417969 105.007812 L 441.847656 114.121094 L 442.28125 122.949219 L 442.710938 131.503906 L 443.574219 147.824219 L 444.4375 163.140625 L 445.300781 177.519531 L 446.164062 191.019531 L 446.652344 198.328125 L 447.144531 205.378906 L 447.636719 212.179688 L 448.125 218.742188 L 448.371094 221.933594 L 448.617188 225.070312 L 448.679688 225.84375 L 448.738281 226.617188 L 448.800781 227.449219 L 448.863281 229.511719 L 448.984375 233.558594 L 449.109375 237.507812 L 449.355469 245.125 L 449.597656 252.378906 L 449.84375 259.292969 L 450.089844 265.875 L 450.335938 272.144531 L 450.582031 278.113281 L 450.828125 283.800781 L 451.070312 289.21875 L 451.316406 294.378906 L 451.5625 299.296875 L 451.808594 303.976562 L 452.054688 308.433594 L 452.542969 316.726562 L 453.035156 324.25 L 453.527344 331.074219 L 454.019531 337.269531 L 454.40625 341.765625 L 454.796875 345.929688 L 455.183594 349.785156 L 455.574219 353.351562 L 456.351562 359.710938 L 457.132812 365.164062 L 457.910156 369.832031 L 458.6875 373.835938 L 459.464844 377.265625 L 460.246094 380.207031 L 461.210938 383.28125 L 462.179688 385.816406 L 462.660156 386.914062 L 463.144531 387.910156 L 463.386719 388.375 L 463.628906 388.816406 L 463.871094 389.238281 L 464.113281 389.640625 L 464.234375 389.835938 L 464.355469 390.023438 L 464.414062 390.117188 L 464.476562 390.207031 L 464.535156 397.816406 L 573.410156 397.816406 "/>
<path fill="none" stroke-width="1.5" stroke-linecap="butt" stroke-linejoin="miter" stroke="rgb(90.196079%, 62.352943%, 0%)" stroke-opacity="1" stroke-miterlimit="2" d="M 361.589844 397.816406 L 376.585938 397.816406 L 382.542969 397.804688 L 390.53125 397.652344 L 393.828125 397.371094 L 397.128906 396.609375 L 398.664062 395.898438 L 400.195312 394.769531 L 400.964844 393.972656 L 401.730469 392.96875 L 402.496094 391.707031 L 403.265625 390.113281 L 404.226562 387.511719 L 405.191406 384.035156 L 405.671875 381.878906 L 406.152344 379.382812 L 406.636719 376.5 L 407.117188 373.164062 L 407.597656 369.304688 L 408.078125 364.84375 L 408.5625 359.683594 L 409.042969 353.714844 L 409.28125 350.390625 L 409.523438 347.710938 L 409.765625 346.464844 L 410.003906 345.1875 L 410.488281 342.539062 L 410.96875 339.753906 L 411.832031 334.40625 L 412.695312 328.5625 L 413.558594 322.183594 L 414.421875 315.21875 L 415.285156 307.609375 L 416.148438 299.296875 L 417.015625 290.222656 L 417.878906 280.3125 L 418.371094 274.234375 L 418.867188 267.839844 L 419.359375 261.117188 L 419.855469 254.046875 L 420.347656 246.609375 L 420.84375 238.789062 L 421.339844 230.5625 L 421.832031 221.910156 L 422.820312 203.671875 L 423.808594 184.863281 L 424.304688 174.785156 L 424.796875 164.230469 L 425.292969 153.179688 L 425.785156 141.601562 L 426.15625 132.59375 L 426.527344 123.265625 L 426.894531 113.613281 L 427.265625 103.617188 L 427.359375 101.066406 L 427.449219 98.492188 L 427.542969 95.894531 L 427.632812 93.949219 L 427.820312 92.4375 L 428.003906 90.917969 L 428.375 87.855469 L 428.742188 84.761719 L 430.222656 72.074219 L 431.699219 58.875 L 432.171875 54.539062 L 432.644531 50.152344 L 433.117188 45.707031 L 433.589844 41.207031 L 433.824219 38.933594 L 433.945312 38.414062 L 434.0625 38.496094 L 434.296875 38.667969 L 434.535156 38.835938 L 435.007812 39.175781 L 435.480469 39.511719 L 435.953125 39.851562 L 436.425781 40.1875 L 436.898438 40.527344 L 437.371094 40.863281 L 437.488281 40.949219 L 437.605469 41.03125 L 437.726562 41.648438 L 437.84375 43.050781 L 438.078125 45.835938 L 438.316406 48.601562 L 438.789062 54.066406 L 439.261719 59.449219 L 440.988281 78.382812 L 442.710938 96.261719 L 443.144531 100.570312 L 443.574219 104.820312 L 443.789062 106.921875 L 444.007812 109.007812 L 444.113281 110.046875 L 444.222656 111.082031 L 444.277344 111.597656 L 444.328125 112.613281 L 444.382812 114.378906 L 444.4375 116.132812 L 444.652344 123.042969 L 444.867188 129.785156 L 445.085938 136.359375 L 445.300781 142.773438 L 445.730469 155.132812 L 446.164062 166.894531 L 446.652344 179.585938 L 447.144531 191.582031 L 447.636719 202.917969 L 448.125 213.632812 L 448.617188 223.753906 L 449.109375 233.324219 L 449.597656 242.363281 L 450.089844 250.910156 L 450.582031 258.984375 L 451.070312 266.617188 L 451.5625 273.828125 L 452.054688 280.644531 L 452.542969 287.082031 L 453.035156 293.171875 L 453.527344 298.921875 L 454.019531 304.359375 L 454.796875 312.371094 L 455.574219 319.695312 L 455.964844 323.121094 L 456.351562 326.394531 L 456.546875 327.976562 L 456.742188 329.523438 L 456.9375 331.039062 L 457.132812 333.308594 L 457.324219 336.855469 L 457.519531 340.207031 L 457.714844 343.375 L 457.910156 346.367188 L 458.296875 351.871094 L 458.6875 356.785156 L 459.078125 361.171875 L 459.464844 365.089844 L 459.855469 368.589844 L 460.246094 371.714844 L 460.726562 375.136719 L 461.210938 378.109375 L 461.695312 380.695312 L 462.179688 382.9375 L 463.144531 386.585938 L 464.113281 389.335938 L 465.078125 391.414062 L 466.046875 392.984375 L 467.011719 394.167969 L 467.980469 395.0625 L 470.941406 396.652344 L 473.90625 397.324219 L 482.257812 397.773438 L 488.5 397.8125 L 495.597656 397.816406 L 573.410156 397.816406 "/>
<path fill="none" stroke-width="1.5" stroke-linecap="butt" stroke-linejoin="miter" stroke="rgb(0%, 61.960787%, 45.09804%)" stroke-opacity="1" stroke-miterlimit="2" d="M 361.589844 397.816406 L 382.542969 397.816406 L 390.53125 397.699219 L 393.828125 397.414062 L 397.128906 396.617188 L 398.664062 395.902344 L 400.195312 394.828125 L 401.730469 393.261719 L 403.265625 391.03125 L 404.226562 389.199219 L 405.191406 386.960938 L 406.152344 384.253906 L 407.117188 381.007812 L 408.078125 377.148438 L 409.042969 372.605469 L 410.003906 367.296875 L 410.96875 361.152344 L 411.832031 354.867188 L 412.695312 347.804688 L 413.558594 339.925781 L 414.421875 331.195312 L 415.285156 321.589844 L 416.148438 311.101562 L 417.015625 299.734375 L 417.878906 287.5 L 418.371094 280.121094 L 418.867188 272.484375 L 419.359375 264.59375 L 419.855469 256.464844 L 420.84375 239.5625 L 421.832031 221.925781 L 423.808594 185.222656 L 425.785156 148.214844 L 426.527344 134.753906 L 427.265625 121.695312 L 428.003906 109.164062 L 428.742188 97.300781 L 429.113281 91.65625 L 429.480469 86.226562 L 429.851562 81.03125 L 430.222656 76.078125 L 430.589844 71.382812 L 430.960938 66.964844 L 431.328125 62.835938 L 431.699219 59.007812 L 432.171875 54.570312 L 432.644531 50.671875 L 433.117188 47.332031 L 433.589844 44.570312 L 434.0625 42.402344 L 434.535156 40.84375 L 435.007812 39.910156 L 435.480469 39.601562 L 435.953125 39.921875 L 436.425781 40.882812 L 436.898438 42.472656 L 437.371094 44.6875 L 437.84375 47.523438 L 438.316406 50.964844 L 438.789062 55 L 439.261719 59.605469 L 439.691406 64.296875 L 440.125 69.429688 L 440.554688 74.984375 L 440.988281 80.945312 L 441.417969 87.28125 L 441.847656 93.972656 L 442.28125 100.992188 L 442.710938 108.316406 L 443.574219 123.757812 L 444.4375 140.066406 L 445.300781 157 L 446.164062 174.332031 L 447.144531 194.238281 L 448.125 214.027344 L 449.109375 233.398438 L 450.089844 252.085938 L 450.582031 261.101562 L 451.070312 269.863281 L 451.5625 278.351562 L 452.054688 286.546875 L 452.542969 294.433594 L 453.035156 302 L 453.527344 309.230469 L 454.019531 316.121094 L 454.40625 321.339844 L 454.796875 326.339844 L 455.183594 331.121094 L 455.574219 335.683594 L 456.351562 344.160156 L 457.132812 351.789062 L 457.910156 358.601562 L 458.6875 364.636719 L 459.464844 369.9375 L 460.246094 374.554688 L 461.210938 379.429688 L 462.179688 383.449219 L 463.144531 386.71875 L 464.113281 389.34375 L 465.078125 391.429688 L 466.046875 393.058594 L 467.011719 394.316406 L 467.980469 395.277344 L 469.460938 396.300781 L 470.941406 396.941406 L 472.425781 397.328125 L 473.90625 397.550781 L 482.257812 397.8125 L 488.5 397.816406 L 573.410156 397.816406 "/>
<path fill-rule="nonzero" fill="rgb(80.000001%, 47.450981%, 65.490198%)" fill-opacity="1" d="M 364.761719 397.816406 C 364.761719 393.589844 358.417969 393.589844 358.417969 397.816406 C 358.417969 402.046875 364.761719 402.046875 364.761719 397.816406 Z M 364.761719 397.816406 "/>
<path fill-rule="nonzero" fill="rgb(80.000001%, 47.450981%, 65.490198%)" fill-opacity="1" d="M 401.367188 396.152344 C 401.367188 391.921875 395.023438 391.921875 395.023438 396.152344 C 395.023438 400.382812 401.367188 400.382812 401.367188 396.152344 Z M 401.367188 396.152344 "/>
<path fill-rule="nonzero" fill="rgb(80.000001%, 47.450981%, 65.490198%)" fill-opacity="1" d="M 425.164062 219.058594 C 425.164062 214.828125 418.816406 214.828125 418.816406 219.058594 C 418.816406 223.289062 425.164062 223.289062 425.164062 219.058594 Z M 425.164062 219.058594 "/>
<path fill-rule="nonzero" fill="rgb(80.000001%, 47.450981%, 65.490198%)" fill-opacity="1" d="M 426.304688 197.914062 C 426.304688 193.683594 419.960938 193.683594 419.960938 197.914062 C 419.960938 202.144531 426.304688 202.144531 426.304688 197.914062 Z M 426.304688 197.914062 "/>
<path fill-rule="nonzero" fill="rgb(80.000001%, 47.450981%, 65.490198%)" fill-opacity="1" d="M 435.195312 55.929688 C 435.195312 51.699219 428.847656 51.699219 428.847656 55.929688 C 428.847656 60.160156 435.195312 60.160156 435.195312 55.929688 Z M 435.195312 55.929688 "/>
<path fill-rule="nonzero" fill="rgb(80.000001%, 47.450981%, 65.490198%)" fill-opacity="1" d="M 438.898438 39.691406 C 438.898438 35.460938 432.554688 35.460938 432.554688 39.691406 C 432.554688 43.921875 438.898438 43.921875 438.898438 39.691406 Z M 438.898438 39.691406 "/>
<path fill-rule="nonzero" fill="rgb(80.000001%, 47.450981%, 65.490198%)" fill-opacity="1" d="M 442.769531 63.234375 C 442.769531 59.003906 436.425781 59.003906 436.425781 63.234375 C 436.425781 67.464844 442.769531 67.464844 442.769531 63.234375 Z M 442.769531 63.234375 "/>
<path fill-rule="nonzero" fill="rgb(80.000001%, 47.450981%, 65.490198%)" fill-opacity="1" d="M 451.972656 227.347656 C 451.972656 223.117188 445.625 223.117188 445.625 227.347656 C 445.625 231.578125 451.972656 231.578125 451.972656 227.347656 Z M 451.972656 227.347656 "/>
<path fill-rule="nonzero" fill="rgb(80.000001%, 47.450981%, 65.490198%)" fill-opacity="1" d="M 467.679688 390.257812 C 467.679688 386.027344 461.335938 386.027344 461.335938 390.257812 C 461.335938 394.488281 467.679688 394.488281 467.679688 390.257812 Z M 467.679688 390.257812 "/>
<path fill-rule="nonzero" fill="rgb(50.196081%, 50.196081%, 50.196081%)" fill-opacity="1" d="M 489.101562 42 L 509.101562 42 L 509.101562 22 L 489.101562 22 Z M 489.101562 42 "/>
<path fill="none" stroke-width="1.5" stroke-linecap="butt" stroke-linejoin="miter" stroke="rgb(0%, 44.705883%, 69.803923%)" stroke-opacity="1" stroke-miterlimit="2" d="M 489.101562 55 L 509.101562 55 "/>
<path fill="none" stroke-width="1.5" stroke-linecap="butt" stroke-linejoin="miter" stroke="rgb(90.196079%, 62.352943%, 0%)" stroke-opacity="1" stroke-miterlimit="2" d="M 489.101562 78 L 509.101562 78 "/>
<path fill="none" stroke-width="1.5" stroke-linecap="butt" stroke-linejoin="miter" stroke="rgb(0%, 61.960787%, 45.09804%)" stroke-opacity="1" stroke-miterlimit="2" d="M 489.101562 101 L 509.101562 101 "/>
<path fill-rule="nonzero" fill="rgb(80.000001%, 47.450981%, 65.490198%)" fill-opacity="1" d="M 502.273438 124 C 502.273438 119.769531 495.929688 119.769531 495.929688 124 C 495.929688 128.230469 502.273438 128.230469 502.273438 124 Z M 502.273438 124 "/>
<g fill="rgb(0%, 0%, 0%)" fill-opacity="1">
<use xlink:href="#glyph-0-10-0c9b23ed" x="514.101005" y="37.10299"/>
</g>
<g fill="rgb(0%, 0%, 0%)" fill-opacity="1">
<use xlink:href="#glyph-0-11-0c9b23ed" x="523.439004" y="37.10299"/>
</g>
<g fill="rgb(0%, 0%, 0%)" fill-opacity="1">
<use xlink:href="#glyph-0-12-0c9b23ed" x="531.223005" y="37.10299"/>
</g>
<g fill="rgb(0%, 0%, 0%)" fill-opacity="1">
<use xlink:href="#glyph-0-13-0c9b23ed" x="542.885006" y="37.10299"/>
</g>
<g fill="rgb(0%, 0%, 0%)" fill-opacity="1">
<use xlink:href="#glyph-0-14-0c9b23ed" x="550.669006" y="37.10299"/>
</g>
<g fill="rgb(0%, 0%, 0%)" fill-opacity="1">
<use xlink:href="#glyph-0-15-0c9b23ed" x="553.777008" y="37.10299"/>
</g>
<g fill="rgb(0%, 0%, 0%)" fill-opacity="1">
<use xlink:href="#glyph-0-16-0c9b23ed" x="561.561009" y="37.10299"/>
</g>
<g fill="rgb(0%, 0%, 0%)" fill-opacity="1">
<use xlink:href="#glyph-5-0-0c9b23ed" x="514.101012" y="60.102991"/>
</g>
<g fill="rgb(0%, 0%, 0%)" fill-opacity="1">
<use xlink:href="#glyph-5-1-0c9b23ed" x="521.885013" y="60.102991"/>
</g>
<g fill="rgb(0%, 0%, 0%)" fill-opacity="1">
<use xlink:href="#glyph-5-2-0c9b23ed" x="529.669012" y="60.102991"/>
</g>
<g fill="rgb(0%, 0%, 0%)" fill-opacity="1">
<use xlink:href="#glyph-5-3-0c9b23ed" x="539.777012" y="60.102991"/>
</g>
<g fill="rgb(0%, 0%, 0%)" fill-opacity="1">
<use xlink:href="#glyph-5-4-0c9b23ed" x="547.561012" y="60.102991"/>
</g>
<g fill="rgb(0%, 0%, 0%)" fill-opacity="1">
<use xlink:href="#glyph-5-5-0c9b23ed" x="552.223011" y="60.102991"/>
</g>
<g fill="rgb(0%, 0%, 0%)" fill-opacity="1">
<use xlink:href="#glyph-5-6-0c9b23ed" x="556.115009" y="60.102991"/>
</g>
<g fill="rgb(0%, 0%, 0%)" fill-opacity="1">
<use xlink:href="#glyph-5-7-0c9b23ed" x="563.89901" y="60.102991"/>
</g>
<g fill="rgb(0%, 0%, 0%)" fill-opacity="1">
<use xlink:href="#glyph-5-8-0c9b23ed" x="571.683011" y="60.102991"/>
</g>
<g fill="rgb(0%, 0%, 0%)" fill-opacity="1">
<use xlink:href="#glyph-5-8-0c9b23ed" x="574.791012" y="60.102991"/>
</g>
<g fill="rgb(0%, 0%, 0%)" fill-opacity="1">
<use xlink:href="#glyph-0-17-0c9b23ed" x="514.101012" y="83.102991"/>
</g>
<g fill="rgb(0%, 0%, 0%)" fill-opacity="1">
<use xlink:href="#glyph-0-13-0c9b23ed" x="524.209012" y="83.102991"/>
</g>
<g fill="rgb(0%, 0%, 0%)" fill-opacity="1">
<use xlink:href="#glyph-0-13-0c9b23ed" x="531.993013" y="83.102991"/>
</g>
<g fill="rgb(0%, 0%, 0%)" fill-opacity="1">
<use xlink:href="#glyph-0-15-0c9b23ed" x="539.777013" y="83.102991"/>
</g>
<g fill="rgb(0%, 0%, 0%)" fill-opacity="1">
<use xlink:href="#glyph-0-18-0c9b23ed" x="547.561012" y="83.102991"/>
</g>
<g fill="rgb(0%, 0%, 0%)" fill-opacity="1">
<use xlink:href="#glyph-0-19-0c9b23ed" x="552.223011" y="83.102991"/>
</g>
<g fill="rgb(0%, 0%, 0%)" fill-opacity="1">
<use xlink:href="#glyph-0-20-0c9b23ed" x="556.115009" y="83.102991"/>
</g>
<g fill="rgb(0%, 0%, 0%)" fill-opacity="1">
<use xlink:href="#glyph-0-21-0c9b23ed" x="563.89901" y="83.102991"/>
</g>
<g fill="rgb(0%, 0%, 0%)" fill-opacity="1">
<use xlink:href="#glyph-0-14-0c9b23ed" x="571.683011" y="83.102991"/>
</g>
<g fill="rgb(0%, 0%, 0%)" fill-opacity="1">
<use xlink:href="#glyph-0-14-0c9b23ed" x="574.791012" y="83.102991"/>
</g>
<g fill="rgb(0%, 0%, 0%)" fill-opacity="1">
<use xlink:href="#glyph-0-22-0c9b23ed" x="514.101007" y="106.102992"/>
</g>
<g fill="rgb(0%, 0%, 0%)" fill-opacity="1">
<use xlink:href="#glyph-0-11-0c9b23ed" x="522.655007" y="106.102992"/>
</g>
<g fill="rgb(0%, 0%, 0%)" fill-opacity="1">
<use xlink:href="#glyph-0-18-0c9b23ed" x="530.439006" y="106.102992"/>
</g>
<g fill="rgb(0%, 0%, 0%)" fill-opacity="1">
<use xlink:href="#glyph-0-23-0c9b23ed" x="535.101007" y="106.102992"/>
</g>
<g fill="rgb(0%, 0%, 0%)" fill-opacity="1">
<use xlink:href="#glyph-0-15-0c9b23ed" x="542.885008" y="106.102992"/>
</g>
<g fill="rgb(0%, 0%, 0%)" fill-opacity="1">
<use xlink:href="#glyph-0-24-0c9b23ed" x="550.669008" y="106.102992"/>
</g>
<g fill="rgb(0%, 0%, 0%)" fill-opacity="1">
<use xlink:href="#glyph-0-25-0c9b23ed" x="514.101012" y="129.102992"/>
</g>
<g fill="rgb(0%, 0%, 0%)" fill-opacity="1">
<use xlink:href="#glyph-0-26-0c9b23ed" x="523.439012" y="129.102992"/>
</g>
<g fill="rgb(0%, 0%, 0%)" fill-opacity="1">
<use xlink:href="#glyph-0-16-0c9b23ed" x="531.223012" y="129.102992"/>
</g>
<g fill="rgb(0%, 0%, 0%)" fill-opacity="1">
<use xlink:href="#glyph-0-27-0c9b23ed" x="538.223013" y="129.102992"/>
</g>
<g fill="rgb(0%, 0%, 0%)" fill-opacity="1">
<use xlink:href="#glyph-0-28-0c9b23ed" x="545.223013" y="129.102992"/>
</g>
<g fill="rgb(0%, 0%, 0%)" fill-opacity="1">
<use xlink:href="#glyph-0-16-0c9b23ed" x="548.331013" y="129.102992"/>
</g>
<g fill="rgb(0%, 0%, 0%)" fill-opacity="1">
<use xlink:href="#glyph-0-16-0c9b23ed" x="555.331013" y="129.102992"/>
</g>
<g fill="rgb(0%, 0%, 0%)" fill-opacity="1">
<use xlink:href="#glyph-0-11-0c9b23ed" x="562.331013" y="129.102992"/>
</g>
<g fill="rgb(0%, 0%, 0%)" fill-opacity="1">
<use xlink:href="#glyph-0-15-0c9b23ed" x="570.115014" y="129.102992"/>
</g>
<path fill="none" stroke-width="1" stroke-linecap="butt" stroke-linejoin="miter" stroke="rgb(0%, 0%, 0%)" stroke-opacity="1" stroke-miterlimit="1.154701" d="M 76.5 416 L 310.5 416 "/>
<path fill="none" stroke-width="1" stroke-linecap="butt" stroke-linejoin="miter" stroke="rgb(0%, 0%, 0%)" stroke-opacity="1" stroke-miterlimit="1.154701" d="M 77 416.5 L 77 15.5 "/>
<path fill="none" stroke-width="1" stroke-linecap="butt" stroke-linejoin="miter" stroke="rgb(0%, 0%, 0%)" stroke-opacity="1" stroke-miterlimit="1.154701" d="M 350.5 416 L 584.5 416 "/>
<path fill="none" stroke-width="1" stroke-linecap="butt" stroke-linejoin="miter" stroke="rgb(0%, 0%, 0%)" stroke-opacity="1" stroke-miterlimit="1.154701" d="M 351 416.5 L 351 15.5 "/>
</svg>
